<?xml version="1.0" encoding="UTF-8" standalone="no"?>
<!-- Copyright Charlie Huckel -->

<svg
   xmlns:dc="http://purl.org/dc/elements/1.1/"
   xmlns:cc="http://creativecommons.org/ns#"
   xmlns:rdf="http://www.w3.org/1999/02/22-rdf-syntax-ns#"
   xmlns:svg="http://www.w3.org/2000/svg"
   xmlns="http://www.w3.org/2000/svg"
   xmlns:sodipodi="http://sodipodi.sourceforge.net/DTD/sodipodi-0.dtd"
   xmlns:inkscape="http://www.inkscape.org/namespaces/inkscape"
   version="1.1"
   width="1200"
   height="650"
   viewBox="0 0 1200 650"
   inkscape:version="0.92.5 (0.92.5+68)"
   id="svg893"
   sodipodi:docname="Charlie Beta.svg">
  <defs
     id="defs897" />
  <sodipodi:namedview
     pagecolor="#ffffff"
     bordercolor="#666666"
     borderopacity="1"
     objecttolerance="10"
     gridtolerance="10"
     guidetolerance="10"
     inkscape:pageopacity="0"
     inkscape:pageshadow="2"
     inkscape:window-width="1920"
     inkscape:window-height="1080"
     id="namedview895"
     showgrid="false"
     inkscape:zoom="7.8937929"
     inkscape:cx="602.93091"
     inkscape:cy="-10.048849"
     inkscape:window-x="0"
     inkscape:window-y="0"
     inkscape:window-maximized="1"
     inkscape:current-layer="avatar-layer" />
  <metadata
     id="metadata3773">
    <rdf:RDF>
      <cc:Work
         rdf:about="">
        <dc:format>image/svg+xml</dc:format>
        <dc:type
           rdf:resource="http://purl.org/dc/dcmitype/StillImage" />
        <dc:title />
      </cc:Work>
    </rdf:RDF>
  </metadata>
  <g
     id="avatar-layer"
     inkscape:groupmode="layer"
     inkscape:label="Avatar"
     style="display:inline">
    <path
       id="avatar-left-leg-forward"
       style="fill:#282828;fill-opacity:1;stroke:none;stroke-width:0.09948412px;stroke-linecap:butt;stroke-linejoin:miter;stroke-opacity:1"
       d="m 592.63193,640.19644 c 0.24822,0.76763 0.60575,1.54147 0.587,2.34802 -0.0317,1.36152 -0.76296,2.61499 -1.17401,3.91337 -0.31126,0.98317 -0.80337,1.91872 -0.97834,2.93503 -0.57554,3.34304 1.75801,7.40163 -0.19567,10.17476 -1.16508,1.65377 -3.66662,2.3998 -5.67438,2.15235 -1.81368,-0.22353 -4.03333,-1.36398 -4.50037,-3.13069 -0.84999,-3.21528 3.44965,-5.78683 4.3047,-9.00076 0.454,-1.70647 0.16053,-3.53235 0.39134,-5.28304 0.18224,-1.38234 -0.0342,-2.97909 0.78267,-4.10904 1.18026,-1.63258 4.66015,-3.29107 5.28305,-2.93503 0.99282,0.43268 0.84982,1.93243 1.17401,2.93503 z"
       inkscape:connector-curvature="0" />
    <path
       id="avatar-right-leg-forward"
       style="fill:#282828;fill-opacity:1;stroke:none;stroke-width:0.09948412px;stroke-linecap:butt;stroke-linejoin:miter;stroke-opacity:1"
       d="m 602.0649,640.19644 c -0.24821,0.76763 -0.60575,1.54147 -0.587,2.34802 0.0317,1.36152 0.76296,2.61499 1.17401,3.91337 0.31126,0.98317 0.80337,1.91872 0.97834,2.93503 0.57554,3.34304 -1.758,7.40163 0.19567,10.17476 1.16509,1.65377 3.66662,2.3998 5.67439,2.15235 1.81368,-0.22353 4.03333,-1.36398 4.50037,-3.13069 0.84999,-3.21528 -3.44965,-5.78683 -4.3047,-9.00076 -0.454,-1.70647 -0.16053,-3.53235 -0.39134,-5.28304 -0.18225,-1.38234 0.0342,-2.97909 -0.78267,-4.10904 -1.18026,-1.63258 -4.66015,-3.29107 -5.28306,-2.93503 -0.99282,0.43268 -0.84982,1.93243 -1.17401,2.93503 z"
       inkscape:connector-curvature="0" />
    <path
       id="avatar-right-leg-back"
       style="fill:#282828;fill-opacity:1;stroke:none;stroke-width:0.09948412px;stroke-linecap:butt;stroke-linejoin:miter;stroke-opacity:1"
       d="m 609.46552,684.95312 c -1.00632,0.60818 -2.67713,0.62207 -3.52204,-0.19567 -1.30947,-1.26738 -2.62897,-8.39585 -2.54369,-12.71846 0.0384,-1.9454 -0.14126,-4.44835 1.36968,-5.67438 1.72274,-1.39789 4.84177,-1.47721 6.65274,-0.19567 1.39749,0.98895 1.51278,3.18049 1.56534,4.89171 0.14668,4.77507 -1.43272,12.62977 -3.52203,13.89247 z"
       inkscape:connector-curvature="0" />
    <path
       id="avatar-left-leg-back"
       style="fill:#282828;fill-opacity:1;stroke:none;stroke-width:0.09948412px;stroke-linecap:butt;stroke-linejoin:miter;stroke-opacity:1"
       d="m 585.2398,684.95312 c 1.00632,0.60818 2.67714,0.62207 3.52204,-0.19567 1.30947,-1.26738 2.62897,-8.39585 2.54369,-12.71846 -0.0384,-1.9454 0.14125,-4.44835 -1.36968,-5.67438 -1.72274,-1.39789 -4.84177,-1.47721 -6.65273,-0.19567 -1.3975,0.98895 -1.51279,3.18049 -1.56535,4.89171 -0.14667,4.77507 1.43273,12.62977 3.52203,13.89247 z"
       inkscape:connector-curvature="0" />
    <path
       id="avatar-left-arm-forward"
       style="fill:#f7c7a7;fill-opacity:1;stroke:none;stroke-width:0.09948412px;stroke-linecap:butt;stroke-linejoin:miter;stroke-opacity:1"
       d="m 588.5538,640.53637 c -1.53761,-2.07203 -5.37956,0.95125 -7.23973,2.73935 -1.68557,1.62027 -1.86198,4.2899 -2.73935,6.45707 -1.83633,4.53583 -6.21928,8.89374 -5.28305,13.69679 0.27368,1.40402 1.55707,2.74676 2.93502,3.1307 2.08855,0.58193 4.86291,-0.10424 6.26139,-1.76102 3.59599,-4.26014 -1.2227,-11.92255 1.76102,-16.63182 0.93991,-1.48349 3.44928,-1.64717 2.93502,-3.32637 -0.40153,-1.31112 -1.51751,1.80243 -2.15235,0.587 -0.9905,-1.89636 4.79699,-3.17362 3.52203,-4.8917 z"
       inkscape:connector-curvature="0" />
    <path
       id="avatar-right-arm-forward"
       style="fill:#f7c7a7;fill-opacity:1;stroke:none;stroke-width:0.09948412px;stroke-linecap:butt;stroke-linejoin:miter;stroke-opacity:1"
       d="m 606.17634,640.53637 c 1.53761,-2.07203 5.37956,0.95125 7.23973,2.73935 1.68557,1.62027 1.86198,4.2899 2.73936,6.45707 1.83633,4.53583 6.21928,8.89374 5.28305,13.69679 -0.27368,1.40402 -1.55707,2.74676 -2.93503,3.1307 -2.08855,0.58193 -4.8629,-0.10424 -6.26139,-1.76102 -3.59599,-4.26014 1.2227,-11.92255 -1.76102,-16.63182 -0.93991,-1.48349 -3.44929,-1.64717 -2.93502,-3.32637 0.40153,-1.31112 1.51751,1.80243 2.15235,0.587 0.99051,-1.89636 -4.79699,-3.17362 -3.52203,-4.8917 z"
       inkscape:connector-curvature="0" />
    <path
       id="avatar-left-arm-back"
       style="fill:#f7c7a7;fill-opacity:1;stroke:none;stroke-width:0.09948412px;stroke-linecap:butt;stroke-linejoin:miter;stroke-opacity:1"
       d="m 573.89103,663.03824 c 0.92259,-0.85018 3.15209,-1.2781 4.30471,-0.78267 1.16347,0.50009 1.85476,1.89976 2.15235,3.13069 1.0817,4.47429 1.11531,10.10292 -1.76102,13.6968 -0.95404,1.19205 -2.83967,1.99532 -4.3047,1.56535 -1.65225,-0.48492 -2.77778,-2.42366 -3.1307,-4.10904 -0.96293,-4.59857 -0.71566,-10.31727 2.73936,-13.50113 z"
       inkscape:connector-curvature="0" />
    <path
       id="avatar-right-arm-back"
       style="fill:#f7c7a7;fill-opacity:1;stroke:none;stroke-width:0.09948412px;stroke-linecap:butt;stroke-linejoin:miter;stroke-opacity:1"
       d="m 620.77564,663.03824 c -0.92259,-0.85018 -3.15209,-1.2781 -4.30471,-0.78267 -1.16348,0.50009 -1.85477,1.89976 -2.15236,3.13069 -1.0817,4.47429 -1.11531,10.10292 1.76102,13.6968 0.95405,1.19205 2.83968,1.99532 4.30471,1.56535 1.65224,-0.48492 2.77778,-2.42366 3.1307,-4.10904 0.96293,-4.59857 0.71566,-10.31727 -2.73936,-13.50113 z"
       inkscape:connector-curvature="0" />
    <path
       id="avatar-torso"
       style="fill:#a6caf8;fill-opacity:1;stroke:none;stroke-width:0.09948412px;stroke-linecap:butt;stroke-linejoin:miter;stroke-opacity:1"
       d="m 572.71702,662.64691 c 0.30935,-1.74708 1.66851,-3.29974 3.1307,-4.30471 6.09389,-4.18837 14.03017,-5.78566 21.42456,-5.75247 6.66867,0.0299 15.74803,1.95679 21.23117,5.75247 1.72693,1.19546 3.62253,2.20653 3.7177,4.30471 0.0862,1.8996 -2.4601,5.42208 -3.7177,6.84839 -2.30402,2.61309 -7.09863,4.16368 -10.5661,4.50038 -4.15586,0.40355 -6.4788,-1.45925 -10.37043,-1.36968 -3.65733,0.0842 -6.94644,1.70431 -10.5661,1.17402 -4.67682,-0.68518 -7.20122,-2.97848 -10.17476,-5.08739 -1.54924,-1.09876 -4.44019,-4.1955 -4.10904,-6.06572 z"
       inkscape:connector-curvature="0" />
    <g
       id="avatar-head">
      <path
         id="avatar-face"
         style="fill:#f7c7a7;fill-opacity:1;stroke:none;stroke-width:0.09948412px;stroke-linecap:butt;stroke-linejoin:miter;stroke-opacity:1"
         d="m 596.70916,647.99722 c 2.16665,0.006 7.1818,0.73796 8.85557,3.33364 1.67376,2.59567 1.16397,5.31247 1.63626,6.93608 0,0 1.39591,0.044 1.4212,0.28424 0.0253,0.24024 0.53798,5.11082 0.56848,5.40057 0.0305,0.28974 -1.27318,-0.87069 -1.46653,0.97404 -0.14566,1.38979 -0.90112,4.61367 -2.74294,6.08536 -1.84182,1.47169 -4.7825,1.84852 -7.22932,1.88289 -2.44682,0.0344 -5.03724,-0.28313 -7.01279,-1.68288 -1.97555,-1.39974 -2.94169,-4.98746 -4.00341,-6.12245 -1.06172,-1.13499 -2.00489,0.0504 -1.98968,-0.28424 0.0152,-0.33463 0.16629,-4.83608 0.28424,-6.25329 l 1.70544,-0.56848 c 1.27705,-0.42568 0.1231,-3.45076 1.53699,-5.90739 1.41389,-2.45662 6.26985,-4.08407 8.43649,-4.07809 z"
         inkscape:connector-curvature="0" />
      <path
         id="avatar-glasses"
         style="fill:none;stroke:#000000;stroke-width:1.66400003;stroke-linecap:butt;stroke-linejoin:miter;stroke-miterlimit:4;stroke-dasharray:none;stroke-opacity:1"
         d="m 608.13302,664.70143 -1.7121,-12.37604 -8.16916,-1.22293 h -2.64153 l -8.31591,1.46752 -1.02726,13.01196 v 0"
         inkscape:connector-curvature="0" />
      <path
         id="avatar-hair"
         style="fill:#5e4335;fill-opacity:1;stroke:none;stroke-width:0.09948412px;stroke-linecap:butt;stroke-linejoin:miter;stroke-opacity:1"
         d="m 596.48961,651.61138 c 2.91237,-0.008 3.22282,1.48955 4.84255,2.21374 1.29568,1.26928 4.30419,0.93248 5.18844,1.79866 2.42285,2.61357 1.58213,7.1558 0.89934,10.65361 -0.32207,1.64985 -0.99876,3.41191 -2.28292,4.49665 -1.95571,1.65199 -4.77333,2.23915 -7.333,2.28292 -2.96452,0.0507 -6.30524,-0.44831 -8.57823,-2.3521 -1.60521,-1.34447 -2.28818,-3.61932 -2.698,-5.6727 -0.63265,-3.16988 -0.96237,-6.54775 0.92272,-9.17356 0.99018,-1.37924 1.92191,-1.06606 3.69032,-1.65424 1.76841,-0.58817 3.93502,-2.58924 5.34878,-2.59298 z"
         inkscape:connector-curvature="0" />
    </g>
    <path
       id="avatar-glasses-lens-left"
       style="fill:none;stroke:#ffffff;stroke-width:0.30000001;stroke-linecap:butt;stroke-linejoin:miter;stroke-miterlimit:4;stroke-dasharray:none;stroke-opacity:1"
       d="m 589.12112,651.44079 5.1228,-0.88048"
       inkscape:connector-curvature="0" />
    <path
       id="avatar-glasses-lens-right"
       style="fill:none;stroke:#ffffff;stroke-width:0.30000001;stroke-linecap:butt;stroke-linejoin:miter;stroke-miterlimit:4;stroke-dasharray:none;stroke-opacity:1"
       d="m 605.1244,651.44079 -5.1228,-0.88048"
       inkscape:connector-curvature="0" />
  </g>
</svg>
