<!-- Copyright Charlie Huckel -->
<svg width="300" height="300" xmlns="http://www.w3.org/2000/svg">
 <g id="avatar-layer"><g id="avatar-layer-self">
  <path id="avatar-left-leg-forward" fill="#282828" stroke-width="0px" d="m145.5389,129.30117c0.24822,0.76763 0.60575,1.54147 0.587,2.34802c-0.0317,1.36152 -0.76296,2.61499 -1.17401,3.91337c-0.31126,0.98317 -0.80337,1.91872 -0.97834,2.93503c-0.57554,3.34304 1.75801,7.40163 -0.19567,10.17476c-1.16508,1.65377 -3.66662,2.3998 -5.67438,2.15235c-1.81368,-0.22353 -4.03333,-1.36398 -4.50037,-3.13069c-0.84999,-3.21528 3.44965,-5.78683 4.3047,-9.00076c0.454,-1.70647 0.16053,-3.53235 0.39134,-5.28304c0.18224,-1.38234 -0.0342,-2.97909 0.78267,-4.10904c1.18026,-1.63258 4.66015,-3.29107 5.28305,-2.93503c0.99282,0.43268 0.84982,1.93243 1.17401,2.93503z"/>
  <path id="avatar-right-leg-forward" fill="#282828" stroke-width="0px" d="m154.97187,129.30117c-0.24821,0.76763 -0.60575,1.54147 -0.587,2.34802c0.0317,1.36152 0.76296,2.61499 1.17401,3.91337c0.31126,0.98317 0.80337,1.91872 0.97834,2.93503c0.57554,3.34304 -1.758,7.40163 0.19567,10.17476c1.16509,1.65377 3.66662,2.3998 5.67439,2.15235c1.81368,-0.22353 4.03333,-1.36398 4.50037,-3.13069c0.84999,-3.21528 -3.44965,-5.78683 -4.3047,-9.00076c-0.454,-1.70647 -0.16053,-3.53235 -0.39134,-5.28304c-0.18225,-1.38234 0.0342,-2.97909 -0.78267,-4.10904c-1.18026,-1.63258 -4.66015,-3.29107 -5.28306,-2.93503c-0.99282,0.43268 -0.84982,1.93243 -1.17401,2.93503z"/>
  <path id="avatar-right-leg-back" fill="#282828" stroke-width="0px" d="m162.37249,174.05785c-1.00632,0.60818 -2.67713,0.62207 -3.52204,-0.19567c-1.30947,-1.26738 -2.62897,-8.39585 -2.54369,-12.71846c0.0384,-1.9454 -0.14126,-4.44835 1.36968,-5.67438c1.72274,-1.39789 4.84177,-1.47721 6.65274,-0.19567c1.39749,0.98895 1.51278,3.18049 1.56534,4.89171c0.14668,4.77507 -1.43272,12.62977 -3.52203,13.89247z"/>
  <path id="avatar-left-leg-back" fill="#282828" stroke-width="0px" d="m138.14677,174.05785c1.00632,0.60818 2.67714,0.62207 3.52204,-0.19567c1.30947,-1.26738 2.62897,-8.39585 2.54369,-12.71846c-0.0384,-1.9454 0.14125,-4.44835 -1.36968,-5.67438c-1.72274,-1.39789 -4.84177,-1.47721 -6.65273,-0.19567c-1.3975,0.98895 -1.51279,3.18049 -1.56535,4.89171c-0.14667,4.77507 1.43273,12.62977 3.52203,13.89247z"/>
  <path id="avatar-left-arm-forward" fill="#f7c7a7" stroke-width="0px" d="m141.46077,129.6411c-1.53761,-2.07203 -5.37956,0.95125 -7.23973,2.73935c-1.68557,1.62027 -1.86198,4.2899 -2.73935,6.45707c-1.83633,4.53583 -6.21928,8.89374 -5.28305,13.69679c0.27368,1.40402 1.55707,2.74676 2.93502,3.1307c2.08855,0.58193 4.86291,-0.10424 6.26139,-1.76102c3.59599,-4.26014 -1.2227,-11.92255 1.76102,-16.63182c0.93991,-1.48349 3.44928,-1.64717 2.93502,-3.32637c-0.40153,-1.31112 -1.51751,1.80243 -2.15235,0.587c-0.9905,-1.89636 4.79699,-3.17362 3.52203,-4.8917z"/>
  <path id="avatar-right-arm-forward" fill="#f7c7a7" stroke-width="0px" d="m159.08331,129.6411c1.53761,-2.07203 5.37956,0.95125 7.23973,2.73935c1.68557,1.62027 1.86198,4.2899 2.73936,6.45707c1.83633,4.53583 6.21928,8.89374 5.28305,13.69679c-0.27368,1.40402 -1.55707,2.74676 -2.93503,3.1307c-2.08855,0.58193 -4.8629,-0.10424 -6.26139,-1.76102c-3.59599,-4.26014 1.2227,-11.92255 -1.76102,-16.63182c-0.93991,-1.48349 -3.44929,-1.64717 -2.93502,-3.32637c0.40153,-1.31112 1.51751,1.80243 2.15235,0.587c0.99051,-1.89636 -4.79699,-3.17362 -3.52203,-4.8917z"/>
  <path id="avatar-left-arm-back" fill="#f7c7a7" stroke-width="0px" d="m126.798,152.14297c0.92259,-0.85018 3.15209,-1.2781 4.30471,-0.78267c1.16347,0.50009 1.85476,1.89976 2.15235,3.13069c1.0817,4.47429 1.11531,10.10292 -1.76102,13.6968c-0.95404,1.19205 -2.83967,1.99532 -4.3047,1.56535c-1.65225,-0.48492 -2.77778,-2.42366 -3.1307,-4.10904c-0.96293,-4.59857 -0.71566,-10.31727 2.73936,-13.50113z"/>
  <path id="avatar-right-arm-back" fill="#f7c7a7" stroke-width="0px" d="m173.68261,152.14297c-0.92259,-0.85018 -3.15209,-1.2781 -4.30471,-0.78267c-1.16348,0.50009 -1.85477,1.89976 -2.15236,3.13069c-1.0817,4.47429 -1.11531,10.10292 1.76102,13.6968c0.95405,1.19205 2.83968,1.99532 4.30471,1.56535c1.65224,-0.48492 2.77778,-2.42366 3.1307,-4.10904c0.96293,-4.59857 0.71566,-10.31727 -2.73936,-13.50113z"/>
  <path id="avatar-torso" fill="#a6caf8" stroke-width="0px" d="m125.62399,151.75164c0.30935,-1.74708 1.66851,-3.29974 3.1307,-4.30471c6.09389,-4.18837 14.03017,-5.78566 21.42456,-5.75247c6.66867,0.0299 15.74803,1.95679 21.23117,5.75247c1.72693,1.19546 3.62253,2.20653 3.7177,4.30471c0.0862,1.8996 -2.4601,5.42208 -3.7177,6.84839c-2.30402,2.61309 -7.09863,4.16368 -10.5661,4.50038c-4.15586,0.40355 -6.4788,-1.45925 -10.37043,-1.36968c-3.65733,0.0842 -6.94644,1.70431 -10.5661,1.17402c-4.67682,-0.68518 -7.20122,-2.97848 -10.17476,-5.08739c-1.54924,-1.09876 -4.44019,-4.1955 -4.10904,-6.06572z"/>
  <g id="avatar-head">
   <path id="avatar-face" fill="#f7c7a7" stroke-width="0px" d="m149.616142,137.101956c2.16665,0.006 7.1818,0.73796 8.85557,3.33364c1.67376,2.59567 1.16397,5.31247 1.63626,6.93608c0,0 1.39591,0.044 1.4212,0.28424c0.0253,0.24024 0.53798,5.11082 0.56848,5.40057c0.0305,0.28974 -1.27318,-0.87069 -1.46653,0.97404c-0.14566,1.38979 -0.90112,4.61367 -2.74294,6.08536c-1.84182,1.47169 -4.7825,1.84852 -7.22932,1.88289c-2.44682,0.0344 -5.03724,-0.28313 -7.01279,-1.68288c-1.97555,-1.39974 -2.94169,-4.98746 -4.00341,-6.12245c-1.06172,-1.13499 -2.00489,0.0504 -1.98968,-0.28424c0.0152,-0.33463 0.16629,-4.83608 0.28424,-6.25329l1.70544,-0.56848c1.27705,-0.42568 0.1231,-3.45076 1.53699,-5.90739c1.41389,-2.45662 6.26985,-4.08407 8.43649,-4.07809z"/>
   <path id="avatar-glasses" fill="none" stroke="#000000" stroke-width="1.664" stroke-miterlimit="4" d="m161.040002,153.806166l-1.7121,-12.37604l-8.16916,-1.22293l-2.64153,0l-8.31591,1.46752l-1.02726,13.01196l0,0" />
   <path id="avatar-hair" fill="#5e4335" stroke-width="0px" d="m149.396592,140.716116c2.91237,-0.008 3.22282,1.48955 4.84255,2.21374c1.29568,1.26928 4.30419,0.93248 5.18844,1.79866c2.42285,2.61357 1.58213,7.1558 0.89934,10.65361c-0.32207,1.64985 -0.99876,3.41191 -2.28292,4.49665c-1.95571,1.65199 -4.77333,2.23915 -7.333,2.28292c-2.96452,0.0507 -6.30524,-0.44831 -8.57823,-2.3521c-1.60521,-1.34447 -2.28818,-3.61932 -2.698,-5.6727c-0.63265,-3.16988 -0.96237,-6.54775 0.92272,-9.17356c0.99018,-1.37924 1.92191,-1.06606 3.69032,-1.65424c1.76841,-0.58817 3.93502,-2.58924 5.34878,-2.59298z"/>
   <path id="avatar-glasses-lens-left" fill="none" stroke="#ffffff" stroke-width="0.3" stroke-miterlimit="4" d="m142.02809,140.54552l5.1228,-0.88048"/>
   <path id="avatar-glasses-lens-right" fill="none" stroke="#ffffff" stroke-width="0.3" stroke-miterlimit="4" d="m158.03137,140.54552l-5.1228,-0.88048"/>
  </g>
 </g></g>
</svg>
