<?xml version="1.0" encoding="UTF-8" standalone="no"?>
<!-- Copyright Charlie Huckel -->
<svg
   xmlns:dc="http://purl.org/dc/elements/1.1/"
   xmlns:cc="http://creativecommons.org/ns#"
   xmlns:rdf="http://www.w3.org/1999/02/22-rdf-syntax-ns#"
   xmlns:svg="http://www.w3.org/2000/svg"
   xmlns="http://www.w3.org/2000/svg"
   xmlns:xlink="http://www.w3.org/1999/xlink"
   width="300"
   height="300"
   version="1.1"
   id="svg846">
   <g id="avatar-layer"><g id="avatar-layer-self">
    <defs>
      <linearGradient
         id="linearGradient872">
        <stop
           style="stop-color:#e8e8e8;stop-opacity:1"
           offset="0"
           id="stop868" />
        <stop
           style="stop-color:#010101;stop-opacity:1"
           offset="1"
           id="stop870" />
      </linearGradient>
      <linearGradient
         id="linearGradient841">
        <stop
           offset="0"
           id="stop852"
           stop-color="#555555"
           style="stop-color:#878787;stop-opacity:1" />
        <stop
           offset="1"
           id="stop854"
           stop-color="#101010" />
      </linearGradient>
      <linearGradient
         id="linearGradient849">
        <stop
           stop-color="#dfdfdf"
           id="stop845"
           offset="0"
           style="stop-color:#eeeeee;stop-opacity:1" />
        <stop
           stop-color="#fd9a00"
           id="stop847"
           offset="1" />
      </linearGradient>
      <linearGradient
         y2="0.743151"
         x2="0.482611"
         y1="0.554613"
         x1="0.482984"
         id="svg_4"
         xlink:href="#linearGradient849" />
      <radialGradient
         xlink:href="#linearGradient841"
         id="radialGradient860"
         cx="150.09972"
         cy="151.99631"
         fx="150.09972"
         fy="151.99631"
         r="7.1295953"
         gradientTransform="matrix(1.9457681,0.01873001,-0.01603129,1.6654091,-139.4921,-96.096891)"
         gradientUnits="userSpaceOnUse" />
      <radialGradient
         xlink:href="#linearGradient872"
         id="radialGradient874"
         cx="151.19591"
         cy="162.86378"
         fx="151.19591"
         fy="162.86378"
         r="18.591522"
         gradientTransform="matrix(-0.95055209,-0.0017498,8.9344487e-4,-0.48535165,293.69815,233.29212)"
         gradientUnits="userSpaceOnUse" />
    </defs>
    <path
       id="avatar-right-leg-forward"
       fill="#2e2e2e"
       stroke-width="1px"
       d="m163.17043,142.66904c0.22781,-1.705 0.74723,-4.73516 0.21123,-5.15613c-0.61721,-0.48475 -1.01769,1.49873 -1.69735,1.2907c-1.08811,-0.33305 -0.17858,-3.14494 -1.09526,-3.23337c-0.73039,-0.0705 -0.7021,2.30135 -1.64746,2.3086c-0.80923,0.006 -0.92884,-2.36426 -1.44036,-1.95434c-0.85443,0.68471 -1.35878,9.66009 1.79713,12.39131c0.65064,0.56308 1.90856,0.53638 2.58138,0c1.50975,-1.2036 1.03498,-3.73298 1.29069,-5.64677z"
       style="fill:#000000;fill-opacity:1" />
    <path
       id="avatar-left-leg-forward"
       fill="#2e2e2e"
       stroke-width="1px"
       d="m137.75444,142.66904c-0.22781,-1.705 -0.74723,-4.73516 -0.21123,-5.15613c0.61721,-0.48475 1.01769,1.49873 1.69735,1.2907c1.08811,-0.33305 0.17858,-3.14494 1.09526,-3.23337c0.73039,-0.0705 0.7021,2.30135 1.64746,2.3086c0.80923,0.006 0.92884,-2.36426 1.44036,-1.95434c0.85443,0.68471 1.35878,9.66009 -1.79713,12.39131c-0.65064,0.56308 -1.90856,0.53638 -2.58138,0c-1.50975,-1.2036 -1.03498,-3.73298 -1.29069,-5.64677z"
       style="fill:#000000;fill-opacity:1" />
    <path
       id="avatar-left-leg-back"
       fill="#2e2e2e"
       stroke-width="1px"
       d="m144.51305,156.7053c-0.80338,3.75092 -2.00206,9.98454 -4.19474,10.32552c-2.33635,0.45193 -2.54148,-5.25298 -3.22673,-8.06682c-0.52419,-2.15249 -2.02903,-4.88464 -0.64534,-6.61478c1.62483,-2.03164 5.74267,-2.62987 7.74414,-0.96802c1.36789,1.13578 0.47246,3.55247 0.32267,5.3241z"
       style="fill:#000000;fill-opacity:1" />
    <path
       id="avatar-right-leg-back"
       fill="#2e2e2e"
       stroke-width="1px"
       d="m155.50142,156.7053c0.80338,3.75092 2.00206,9.98454 4.19474,10.32552c2.33635,0.45193 2.54148,-5.25298 3.22673,-8.06682c0.52419,-2.15249 2.02903,-4.88464 0.64534,-6.61478c-1.62483,-2.03164 -5.74267,-2.62987 -7.74414,-0.96802c-1.36788,1.13578 -0.47246,3.55247 -0.32267,5.3241z"
       style="fill:#000000;fill-opacity:1" />
    <path
       id="avatar-left-arm-forward"
       fill="#2e2e2e"
       stroke-width="1px"
       d="m139.82804,126.59019c1.63879,1.88811 -2.06832,6.96306 -2.70466,10.53102c-0.35485,1.98964 -1.0074,4.04929 -0.6149,6.03184c0.48596,2.45466 3.91457,4.13928 3.5494,6.61479c-0.18868,1.27909 -1.49946,2.38779 -2.74272,2.74271c-1.59306,0.45478 -3.88941,0.22743 -4.84009,-1.12935c-2.47398,-4.58364 4.10264,-25.42976 7.35297,-24.79101z"
       style="fill:#1d1d1d;fill-opacity:1" />
    <path
       id="avatar-left-arm-back"
       d="m 133.16367,148.84433 c -4.48361,0.95966 -7.88058,5.32012 -10.67119,9.07954 -1.31688,1.77405 -1.96332,4.68054 -2.17216,6.90786 -0.22301,2.37858 -0.71658,7.67555 1.5525,8.10821 3.81741,0.72789 1.77874,-9.46911 4.73906,-12.06951 3.50998,-3.08324 10.85422,-1.71942 12.99994,-5.93656 0.75777,-1.48929 0.0253,-3.73517 -1.13792,-4.91092 -1.2956,-1.30953 -3.53743,-1.55807 -5.31023,-1.17862 z"
       style="fill:#1d1d1d;stroke-width:1.02233398px;fill-opacity:1" />
    <path
       id="avatar-right-arm-forward"
       d="m 161.65362,126.59019 c -1.63879,1.88811 2.06832,6.96306 2.70466,10.53102 0.35485,1.98964 1.0074,4.04929 0.6149,6.03184 -0.48596,2.45466 -3.91457,4.13928 -3.5494,6.61479 0.18868,1.27909 1.49946,2.38779 2.74272,2.74271 1.59306,0.45478 3.88941,0.22743 4.84009,-1.12935 1.23699,-2.29182 0.21133,-8.64926 -1.52987,-14.3539 -1.7412,-5.70464 -4.19794,-10.75648 -5.8231,-10.43711 z"
       style="fill:#1d1d1d;stroke-width:1px;fill-opacity:1" />
    <path
       id="avatar-right-arm-back"
       style="opacity:1;fill:#1d1d1d;fill-opacity:1;stroke-width:1.02233398px"
       d="m 167.14229,148.84433 c 4.48361,0.95966 7.88058,5.32012 10.67119,9.07954 1.31688,1.77405 1.96332,4.68054 2.17216,6.90786 0.22301,2.37858 0.71658,7.67555 -1.5525,8.10821 -3.81741,0.72789 -1.77874,-9.46911 -4.73906,-12.06951 -3.50998,-3.08324 -10.85422,-1.71942 -12.99994,-5.93656 -0.75777,-1.48929 -0.0253,-3.73517 1.13792,-4.91092 1.2956,-1.30953 3.53743,-1.55807 5.31023,-1.17862 z" />
    <g
       id="avatar-torso">
      <path
         id="path946"
         fill="url(#svg_4)"
         stroke-width="1px"
         d="m132.142014,150.009912c0.237544,-6.945453 11.080631,-11.536827 18.029997,-11.582898c7.400168,-0.049081 19.011276,4.620509 19.122714,12.019994c0.113789,7.555154 -16.104991,8.803251 -19.341262,8.687171c-3.79468,-0.136106 -18.05889,-1.889214 -17.811449,-9.124267z" />
      <path
         id="path928"
         d="m 149.95346,164.16074 c 1.84141,0.0256 3.72756,-0.20517 5.46364,-0.81956 2.60884,-0.92326 4.95192,-2.5353 7.15735,-4.20699 2.09404,-1.58724 4.35602,-3.19526 5.68218,-5.46364 0.55067,-0.9419 1.58545,-2.60676 0.73047,-3.57443 -0.1655,-0.14382 -0.55496,-0.0566 -0.80658,0.0811 -1.03062,0.37752 -5.14854,3.57586 -8.01007,3.76646 -6.75665,0.45005 -12.22367,0.6308 -19.12271,0 -2.56365,-0.23441 -6.39886,-3.91756 -8.08618,-3.87917 -0.51754,0.0118 -0.57981,-0.30178 -0.76491,0.1639 -0.33154,0.83403 0.28517,2.6471 0.92882,3.76991 1.36432,2.37994 3.70742,4.0891 5.90072,5.73681 3.44628,2.46877 6.92312,4.34548 10.92727,4.42556 z"
         style="fill:url(#radialGradient874);fill-opacity:1;stroke-width:1px" />
    </g>
    <g
       id="avatar-head">
      <path
         id="avatar-head-base"
         style="fill:url(#radialGradient860);fill-opacity:1;stroke-width:1px"
         d="m 150.08481,129.95346 c -0.48686,0.0117 -0.65895,6.0298 -1.28016,8.73956 -0.37136,1.61993 -1.26722,2.33601 -2.23189,3.69428 -0.96273,1.35556 -2.99411,4.16271 -3.42345,5.89834 -0.57944,2.34245 0.12636,6.09027 1.20987,8.24638 0.80762,1.60714 4.11735,3.42826 5.79814,3.30948 1.86309,-0.1317 3.21739,-1.00721 4.79262,-2.01074 2.93631,-2.98213 2.58221,-8.00274 1.29128,-10.83212 -1.0841,-2.38374 -2.00559,-3.89661 -2.63629,-4.90817 -0.73604,-1.1805 -1.81475,-2.22991 -2.13098,-3.58466 -0.36295,-1.55489 -0.88472,-8.56415 -1.38914,-8.55235 z" />
      <path
         id="avatar-head-right-orange-patch"
         fill="#fd9a00"
         stroke-width="1px"
         d="m152.084284,156.511636c0.612722,-1.147609 2.04001,-2.027022 2.950364,-2.950353c0.355268,-0.360338 0.886671,-1.040199 1.311265,-0.764918c1.137422,0.737426 0.287516,2.897464 -0.437085,4.043093c-0.860684,1.360786 -2.835904,2.593129 -3.824534,2.567905c-0.531252,-0.42052 -0.213478,-1.197106 -0.000012,-2.895727z" />
      <path
         id="avatar-head-left-orange-patch"
         fill="#fd9a00"
         stroke-width="1px"
         d="m148.134247,156.456999c-0.612722,-1.147609 -2.04001,-2.027022 -2.950364,-2.950353c-0.355268,-0.360338 -0.886671,-1.040199 -1.311265,-0.764918c-1.137422,0.737426 -0.287516,2.897464 0.437085,4.043093c0.860684,1.360786 2.835904,2.593129 3.824534,2.567905c0.531252,-0.42052 0.213478,-1.197106 0.000012,-2.895727z" />
    </g>
  </g></g>
</svg>
