<?xml version="1.0" encoding="UTF-8" standalone="no"?>
<!-- Copyright Charlie Huckel -->
<svg
   xmlns:dc="http://purl.org/dc/elements/1.1/"
   xmlns:cc="http://creativecommons.org/ns#"
   xmlns:rdf="http://www.w3.org/1999/02/22-rdf-syntax-ns#"
   xmlns:svg="http://www.w3.org/2000/svg"
   xmlns="http://www.w3.org/2000/svg"
   xmlns:xlink="http://www.w3.org/1999/xlink"
   xmlns:sodipodi="http://sodipodi.sourceforge.net/DTD/sodipodi-0.dtd"
   xmlns:inkscape="http://www.inkscape.org/namespaces/inkscape"
   version="1.1"
   id="cliffs-lic-floorplan"
   width="1200"
   height="700"
   viewBox="0 0 1200 694"
   sodipodi:docname="cliffsmap.svg"
   inkscape:version="0.92.5 (0.92.5+68)">
  <metadata
     id="metadata3773">
    <rdf:RDF>
      <cc:Work
         rdf:about="">
        <dc:format>image/svg+xml</dc:format>
        <dc:type
           rdf:resource="http://purl.org/dc/dcmitype/StillImage" />
        <dc:title />
      </cc:Work>
    </rdf:RDF>
  </metadata>
  <defs
     id="defs3771">
    <pattern
       inkscape:collect="always"
       xlink:href="#Strips1_2white"
       id="whitestripes"
       patternTransform="matrix(1.2,1.2,-14,14,0,0)" />
    <pattern
       inkscape:stockid="Stripes 1:2 white"
       id="Strips1_2white"
       patternTransform="translate(0,0) scale(10,10)"
       height="1"
       width="3"
       patternUnits="userSpaceOnUse"
       inkscape:collect="always">
      <rect
         id="rect1567"
         height="2"
         width="1"
         y="-0.5"
         x="0"
         style="fill:white;stroke:none" />
    </pattern>
  </defs>
  <g
     id="pads-layer"
     inkscape:groupmode="layer"
     inkscape:label="Pads"
     style="display:inline">
    <path
       id="paddingslab"
       style="display:inline;fill:#cde5ff;fill-opacity:1;stroke:none"
       d="m 246.91169,265.81305 215.16045,-0.48646 v 11.67543 l 16.44538,-0.38853 -0.79084,-61.77114 -8.89245,-9.02631 -15.69258,-4.51316 -61.20553,6.13521 c -11.84539,1.18737 -119.66485,3.42742 -148.02878,7.96842 l -10.63091,11.54289 -2.88008,52.02367 16.96641,-0.51162 z" />
    <path
       id="padding45buddha3dprow"
       style="display:inline;fill:#cde5ff;fill-opacity:1;stroke:none"
       d="m 672.2708,130.0861 -1.3532,-25.78325 -14.43424,-18.486112 h -46.00915 c 0,0 -0.0479,20.049872 -4.05965,29.675072 -4.0118,9.62519 -12.02599,16.21496 -20.29815,17.51315 0,0 -9.53773,-10.21995 -11.27674,-17.99963 -1.73903,-7.77967 -0.39117,-17.883194 -9.02141,-22.864404 -8.63024,-4.981193 -17.59173,-2.432366 -17.59173,-2.432366 0,0 -17.30446,2.586381 -23.90673,5.837728 -6.60226,3.251326 -10.31359,9.037122 -15.33638,12.161892 -5.02279,3.1248 -14.43424,6.81067 -14.43424,6.81067 -26.88174,-11.02782 -69.53976,-10.63194 -93.82259,-0.48646 L 355.61958,79.492556 301.63836,79.280384 266.3077,103.81639 c -30.02736,0.0679 -101.94087,4.38249 -101.94087,4.38249 l -49.19471,51.70585 5.43994,76.23327 68.56264,0.97296 -0.54788,10.70249 14.40323,-6.27093 6.61939,-29.74575 28.68406,-22.60679 146.73003,-9.51865 93.77482,-10.11357 116.94272,33.9102 32.54538,-0.59492 53.80951,-44.0622 0.0583,-28.72474 z" />
    <path
       id="paddingmez"
       style="display:inline;fill:#cde5ff;fill-opacity:1;stroke:none"
       d="M 51.598319,65.871206 C 51.435156,50.297001 51.272004,34.722802 51.108842,19.148599 77.02883,18.740502 102.94883,18.332408 128.86882,17.924311 128.18001,29.467099 127.9458,41.143387 126.97438,52.603179 110.95652,85.9341 94.938662,119.26501 78.920807,152.59591 c 0,20.71239 0,41.42475 0,62.13711 -12.866417,0 -25.732834,0 -38.59924,0 1.052497,-10.05384 2.104994,-20.1077 3.157491,-30.16153 -1.997065,-4.37998 -4.689765,-8.63182 -6.250436,-13.09219 1.32129,-8.2179 2.168875,-16.64457 3.78611,-24.73205 2.9133,-4.7528 6.522974,-9.14449 9.006394,-14.12021 2.425559,-9.75184 5.372866,-19.41446 7.473114,-29.22195 0.440407,-12.349133 0.880804,-24.69826 1.321201,-37.047408 -2.405708,-0.162162 -4.811415,-0.324314 -7.217122,-0.486476 z" />
    <path
       id="paddinghighandlowbay"
       style="display:inline;fill:#cde5ff;fill-opacity:1;stroke:none"
       d="m 1127.3998,68.302552 c 0,0 -72.1705,0.560623 -87.0558,0.560623 -7.7357,0 -74.40061,2.27682 -74.40061,2.27682 l -15.36165,7.806939 -44.20504,-9.523093 -57.28619,0.560667 -35.18472,19.046175 -16.68841,-19.606842 h -74.42605 -9.36365 v 29.753768 l 4.98066,11.931501 11.74378,22.53905 37.00956,24.30786 88.60929,11.9315 26.33397,0.44221 29.18037,-15.90868 81.13832,-4.86158 13.52197,12.37373 4.2791,41.85636 -12.45376,25.22382 -83.60533,-25.32385 -50.45524,4.80366 -112.71785,42.10113 -20.49068,57.38867 -0.13989,35.21282 32.78552,19.54893 62.91328,16.56936 28.24146,30.56709 21.55253,39.19526 32.89573,29.50109 62.2626,12.01835 39.36213,-4.82734 36.3864,-52.34809 12.9434,-67.70927 37.6455,12.32105 12.8862,177.76186 -10.9469,0.41589 -22.1991,-21.32563 -52.4029,-18.56715 -78.80697,21.6415 -22.80087,28.7746 -0.72274,43.8173 17.4154,25.59234 31.10694,0.7528 -0.45145,-55.45929 h 44.65649 l 41.95,22.40746 50.0674,17.36425 36.0854,12.88434 19.8485,-0.55801 1.3522,-23.52875 3.1579,-14.56628 -9.9232,-24.64739 -1.8438,-84.5866 7.2569,-21.84943 -0.9028,-92.99103 -29.3203,-50.97674 -86.1529,-2.80059 -0.9029,-21.84682 20.2978,-15.12694 31.5733,4.31146 52.7781,-6.5514 c 0,0 1.9488,-122.63944 0.4494,-183.181456 z M 872.12454,258.09068 c 0,0 40.99647,7.24452 75.04491,25.31069 22.41546,11.89369 46.26296,50.99255 46.26296,50.99255 0,0 -1.58698,10.29523 -0.33692,26.87419 0.75508,10.01457 4.05805,24.36335 4.3978,28.58247 0.90221,11.20374 1.35121,29.13119 -15.33835,40.33498 -23.61265,15.85123 -51.42117,-21.84692 -55.93187,-25.20807 -4.51069,-3.36112 -25.71085,-8.96244 -25.71085,-8.96244 0,0 -12.17781,-29.13098 -19.39493,-33.61248 -2.90756,-1.80545 -33.31115,-11.76044 -33.31115,-11.76044 l -6.77371,-11.38927 c 0,0 -30.69646,-1.8128 -35.24406,-2.05834 -20.74922,-7.84264 -22.55502,-18.48555 -22.55502,-18.48555 0,0 0.90299,-16.80719 13.98403,-30.81188 10.37461,-11.76396 27.23321,-20.80962 40.59564,-21.8468 5.91761,-0.19161 34.31152,-7.95961 34.31152,-7.95961 z" />
    <path
       id="paddingfoxwall"
       style="display:inline;fill:#cde5ff;fill-opacity:1;stroke:none"
       d="m 218.94533,636.99464 -1.80427,-81.24158 h -12.17889 l 1.3532,-84.64691 15.33638,-22.86439 h 11.72782 v 0 -11.18964 h -44.93804 l -19.90679,19.15243 -8.73094,32.1813 v 78.09279 l 20.76065,22.39024 v 38.22727 l 6.07629,9.82984 z" />
    <path
       id="paddingredwall"
       style="display:inline;fill:#cde5ff;fill-opacity:1;stroke:none"
       d="m 772.149,408.97358 31.34283,-1.15032 21.54821,23.00628 14.69196,37.96034 -0.60127,102.08181 42.59214,55.85968 0.42281,8.60115 -26.08582,-0.22697 0.45107,-12.71403 -67.66052,0.52975 -0.90214,-59.8619 -6.76605,0.52975 v -31.78507 l 6.76605,-0.52977 -1.27588,-103.18042 -13.98317,0.52973 z" />
    <path
       id="paddingautobelay"
       style="display:inline;fill:#cde5ff;fill-opacity:1;stroke:none"
       d="m 171.13191,267.27249 v 13.13486 l -64.9541,0.97295 -10.82568,9.72954 -37.8899,18.48612 -6.766051,37.94514 4.059631,30.64804 -4.510701,30.64802 -10.374612,19.94553 -7.217123,54.97185 20.298155,14.10782 14.885324,23.83734 -0.90215,23.83736 18.493874,19.94553 h 18.042803 l -1.80428,42.32346 28.86849,14.10784 0.45108,15.08075 h 21.38469 l 3.6242,-6.77003 V 605.15716 L 131.35145,576.55822 108.41447,518.65878 81.202762,465.36959 94.092523,403.58505 v -57.15073 l 97.457207,-29.34766 v -49.39834 z" />
    <path
       id="paddingpractice"
       style="display:inline;fill:#cde5ff;fill-opacity:1;stroke:none"
       d="m 618.47112,283.30174 v 16.46095 l 5.18004,4.61825 h 15.58824 l 4.84507,-4.84507 v -16.26721 l -4.75173,-4.31995 h -16.41276 z" />
  </g>
  <g
     id="roof-layer"
     inkscape:groupmode="layer"
     inkscape:label="Roof"
     style="display:inline">
    <path
       id="roof-lead-cave-routes"
       style="display:inline;fill:url(#whitestripes);fill-opacity:1;stroke:none"
       d="m 1045.757,295.74087 v -22.82558 l -17.7303,-38.00109 36.7093,-94.50148 -0.9431,-71.673996 63.6076,-0.434985 23.4551,26.888795 -0.4505,183.181746 -52.7775,6.5514 -31.5726,-4.31065 z" />
    <path
       id="roof-buddha-boulder"
       style="display:inline;fill:url(#whitestripes);fill-opacity:1;stroke:none"
       d="m 266.3077,103.81639 35.33066,-24.536006 53.98122,0.212172 45.10701,34.539834 -22.54569,6.46873 -17.55031,19.81487 -67.37055,1.13228 -13.0212,-26.0424 z" />
    <path
       id="roof-45-boulder"
       style="display:inline;fill:url(#whitestripes);fill-opacity:1;stroke:none"
       d="m 159.61391,236.78338 -17.8493,-33.98231 80.32184,-97.48463 -57.71963,2.88243 -49.1947,51.70586 5.43994,76.23327 z" />
    <path
       id="roof-moon"
       style="display:inline;opacity:1;fill:#ffffff;fill-opacity:1;stroke:none;"
       d="m 81.352843,61.153753 c -2.419615,-0.172596 -4.790802,-0.804201 -6.979398,-1.85909 -2.086448,-1.005651 -3.646814,-2.110513 -5.253071,-3.719586 -1.278023,-1.280266 -2.236535,-2.522756 -3.088807,-4.003939 -4.102845,-7.130411 -3.042423,-16.179571 2.599069,-22.179259 1.552916,-1.65151 3.284548,-2.955152 5.292952,-3.984728 2.001438,-1.026015 4.083541,-1.675509 6.340651,-1.977916 0.934276,-0.125173 3.063103,-0.172553 4.010645,-0.08926 2.583831,0.227134 4.860858,0.85764 7.064915,1.956264 4.603098,2.294445 8.056121,6.265668 9.638681,11.085182 1.51322,4.608321 1.19411,9.586844 -0.89338,13.93809 -3.40607,7.099726 -10.836754,11.397438 -18.732257,10.834242 z m 0.429711,-12.393258 c 1.538435,-0.414812 2.384037,-1.551006 2.604852,-3.500013 0.07744,-0.683552 0.07614,-5.268446 -0.0017,-5.966496 -0.08226,-0.737761 -0.240814,-1.330264 -0.495294,-1.85094 -0.652844,-1.335735 -2.180631,-2.036582 -3.997869,-1.833944 -1.931001,0.215316 -2.990753,1.208593 -3.391178,3.178463 -0.09302,0.457587 -0.104432,0.829875 -0.103615,3.378987 9.9e-4,3.165901 0.02431,3.44106 0.371964,4.393654 0.469164,1.285548 1.382039,2.015741 2.854589,2.283354 0.414109,0.07526 1.763722,0.0233 2.158251,-0.08306 z m -1.952477,-2.635914 c -0.242576,-0.105631 -0.513394,-0.450996 -0.603731,-0.769922 -0.05761,-0.203364 -0.07583,-0.941175 -0.07736,-3.130812 -0.0021,-3.028938 0.0037,-3.104427 0.268609,-3.481964 0.224127,-0.319431 0.76804,-0.482961 1.25734,-0.378025 0.347625,0.07456 0.60167,0.282594 0.758248,0.620935 0.116224,0.251143 0.120763,0.354843 0.137455,3.14025 0.01489,2.48559 0.0048,2.929328 -0.07391,3.236424 -0.100089,0.390687 -0.290086,0.638846 -0.586077,0.765494 -0.233093,0.09973 -0.849174,0.09838 -1.08057,-0.0022 z m 11.119667,2.438926 c 1.503633,-0.392618 2.308511,-1.301611 2.67105,-3.016553 0.250522,-1.185051 0.289101,-5.633276 0.05825,-6.715732 -0.183644,-0.861086 -0.35962,-1.276797 -0.773656,-1.827586 -0.565925,-0.752848 -1.504388,-1.187213 -2.729127,-1.263169 -1.47205,-0.09129 -2.669818,0.522373 -3.2252,1.652403 -0.512197,1.04215 -0.572106,1.639019 -0.542415,5.403927 0.02198,2.783165 0.02902,2.944854 0.148693,3.401953 0.456106,1.742053 1.617486,2.582831 3.447035,2.495472 0.299367,-0.01432 0.724784,-0.07311 0.94537,-0.130715 z m -1.276636,-2.567539 c -0.229504,-0.113115 -0.382065,-0.318299 -0.462054,-0.621422 -0.08947,-0.339068 -0.04556,-5.938009 0.04905,-6.253101 0.132612,-0.441685 0.504035,-0.707709 0.988106,-0.707709 0.319597,0 0.721947,0.203724 0.883936,0.447571 0.242376,0.364858 0.262884,0.671516 0.232494,3.476394 -0.03063,2.826079 -0.04933,3.012602 -0.338669,3.380457 -0.265714,0.337802 -0.947223,0.47775 -1.352875,0.27781 z m -15.348565,1.814136 c -0.0054,-0.362389 -0.03802,-1.200326 -0.07267,-1.862088 -0.03465,-0.661755 -0.07666,-2.427868 -0.09335,-3.924698 -0.03341,-2.995163 -0.07453,-3.456612 -0.379087,-4.253866 -0.290907,-0.761521 -0.72379,-1.240598 -1.393248,-1.541924 -0.344262,-0.154952 -1.313197,-0.21359 -1.813426,-0.109741 -0.407307,0.08456 -0.945482,0.340943 -1.218101,0.580307 -0.187728,0.164828 -0.230984,0.180415 -0.329652,0.118797 -0.517385,-0.323116 -0.936396,-0.409259 -1.430947,-0.294185 -1.08406,0.252242 -1.701886,1.115842 -1.947202,2.721809 -0.101494,0.664424 -0.103455,3.727986 -0.0031,4.726828 0.161003,1.601301 0.375285,2.898145 0.502472,3.04099 0.126845,0.142462 0.991806,0.425217 1.067918,0.349106 0.04583,-0.04583 0.02961,-0.30187 -0.0595,-0.938757 -0.267464,-1.911742 -0.3776,-3.693562 -0.341168,-5.519528 0.02798,-1.402335 0.06099,-1.594336 0.322547,-1.876142 0.2033,-0.219039 0.541093,-0.202382 0.718055,0.0354 0.116334,0.156323 0.121555,0.242637 0.157661,2.606917 0.02054,1.344886 0.06616,2.75464 0.101391,3.132787 0.129342,1.388426 0.310137,2.783038 0.371337,2.864409 0.05389,0.07164 0.597851,0.197111 1.466604,0.338275 0.358825,0.05831 0.365981,0.03418 0.26371,-0.889085 -0.144482,-1.304335 -0.201241,-2.16601 -0.268716,-4.079467 -0.06844,-1.940784 -0.03547,-3.2832 0.09176,-3.736037 0.221722,-0.789175 1.173514,-0.969967 1.53368,-0.291322 0.122261,0.230375 0.125906,0.301293 0.163739,3.186304 0.04164,3.175745 0.202258,5.962117 0.348892,6.052744 0.06209,0.0384 1.956656,0.241628 2.135411,0.229087 0.108088,-0.0076 0.114041,-0.04544 0.104918,-0.666927 z m 21.73034,0.116017 c 0.381385,-0.06223 0.73492,-0.129062 0.785628,-0.148521 0.119842,-0.046 0.134679,-0.101979 0.23432,-0.884213 0.227801,-1.788352 0.320594,-3.411357 0.320594,-5.60728 0,-1.866593 0.02888,-2.146773 0.240822,-2.338607 0.159451,-0.144304 0.471813,-0.125616 0.646713,0.03868 0.23551,0.221254 0.31466,0.613333 0.35289,1.747997 0.0562,1.66749 -0.13209,4.510048 -0.40286,6.08285 -0.0425,0.246821 -0.064,0.483877 -0.0478,0.526785 0.0701,0.18557 1.07855,-0.145858 1.19618,-0.393145 0.1073,-0.22562 0.35249,-1.929259 0.44796,-3.112746 0.10158,-1.258986 0.11424,-3.473658 0.0244,-4.268525 -0.20282,-1.794944 -0.76026,-2.701451 -1.857327,-3.020377 -1.092185,-0.317506 -1.959936,0.274659 -2.315229,1.579965 -0.18589,0.682936 -0.232859,1.339847 -0.233396,3.264085 -5.52e-4,2.003046 -0.05785,3.284959 -0.23361,5.227735 -0.06486,0.716665 -0.101837,1.329005 -0.08219,1.360755 0.04885,0.07904 0.127624,0.07431 0.922873,-0.05543 z" />
  </g>
  <g
     id="structures-layer"
     inkscape:groupmode="layer"
     inkscape:label="Structures"
     style="display:inline">
    <path
       id="structure-lockers-weights"
       style="display:inline;opacity:1;fill:#eeeeee"
       d="m 462.07214,277.00202 v -11.67543 l -215.16045,0.48646 0.45107,12.6484 h -14.49244 l 0.25463,169.61115 0.25462,0.16916 h -11.72782 l -15.33638,22.86439 -1.3532,84.64691 h 12.17889 l 1.80427,81.24158 220.18212,-0.85169 V 385.78366 h 23.22873 l -0.28404,-108.78164 v 0" />
    <path
       id="structure-front-desk"
       style="display:inline;opacity:1;fill:#eeeeee"
       d="m 498.03214,299.9141 0.0699,31.36021 h 37.0247 l -0.0861,41.45711 h -72.68522 v 13.05146 h -23.22656 l -0.0508,20.25968 H 569.56049 V 299.9141 Z" />
    <path
       id="cliffs-logo"
       style="display:inline;opacity:1;fill:#e8e8e8"
       d="m 491.13903,622.78585 c -0.40033,-0.29658 -0.44862,-1.33516 -0.50884,-10.94424 l -0.0665,-10.61656 -3.53887,-0.13106 c -1.94636,-0.0721 -3.6863,-0.2265 -3.86651,-0.34315 -0.45124,-0.29204 -0.46305,-7.01861 -0.013,-7.46854 0.2355,-0.23549 3.32791,-0.31456 12.30173,-0.31456 10.5479,0 12.03662,0.0495 12.3991,0.41192 0.32844,0.32845 0.41193,1.04572 0.41193,3.53886 0,4.246 0.0753,4.17547 -4.45633,4.17547 h -3.40779 v 10.48548 c 0,10.13598 -0.0175,10.50298 -0.52428,11.00977 -0.47707,0.47708 -0.87378,0.52428 -4.40623,0.52428 -2.69491,0 -4.0172,-0.1002 -4.32426,-0.32767 z m 20.19899,0.0445 c -0.42814,-0.24938 -0.45874,-1.23341 -0.45874,-14.75035 0,-10.91516 0.0774,-14.56066 0.31457,-14.79773 0.49499,-0.49499 8.43313,-0.43599 8.84956,0.0657 0.22135,0.26669 0.30899,1.73527 0.29334,4.91507 -0.0123,2.49411 0.0759,4.6861 0.19603,4.87111 0.16224,0.24992 1.02136,0.31728 3.34315,0.26212 l 3.12479,-0.0742 0.0717,-4.83001 c 0.0448,-3.02076 0.17957,-4.96007 0.35977,-5.17721 0.45682,-0.55043 8.42908,-0.493 8.98682,0.0648 0.36438,0.36438 0.41193,2.05717 0.41193,14.66482 v 14.25289 l -0.5826,0.40806 c -0.46313,0.32439 -1.36353,0.40725 -4.39079,0.40407 -2.09452,-0.002 -3.98515,-0.11565 -4.20142,-0.25208 -0.32024,-0.20203 -0.41752,-1.2106 -0.52427,-5.43534 l -0.13108,-5.18727 h -3.2767 -3.27672 l -0.0687,5.11169 c -0.0596,4.4302 -0.12733,5.15535 -0.50884,5.43934 -0.54586,0.40633 -7.84518,0.44443 -8.53177,0.0445 z m 29.88364,0 c -0.42813,-0.24938 -0.45874,-1.23341 -0.45874,-14.75035 0,-10.91516 0.0775,-14.56066 0.31457,-14.79773 0.4521,-0.45209 21.72471,-0.45209 22.1768,0 0.21305,0.21305 0.31457,1.43679 0.31457,3.79176 0,3.16954 -0.0449,3.50123 -0.50704,3.74857 -0.30757,0.16461 -2.89086,0.27136 -6.56651,0.27136 h -6.05947 l 0.0786,1.50729 0.0786,1.5073 5.3618,0.0711 c 3.88788,0.0516 5.41805,0.15967 5.5664,0.39322 0.34262,0.53934 0.25433,6.33574 -0.10193,6.692 -0.224,0.22401 -1.84662,0.31457 -5.63595,0.31457 h -5.32139 v 1.70389 1.70389 h 6.23887 c 4.50293,0 6.32638,0.0876 6.55343,0.31456 0.21303,0.21305 0.31455,1.4368 0.31455,3.79176 0,3.16952 -0.045,3.50122 -0.50703,3.74857 -0.68676,0.36754 -21.2079,0.35648 -21.84016,-0.0118 z m 41.42136,0.0221 c -0.39445,-0.11877 -1.11595,-0.46239 -1.6033,-0.7636 -1.27964,-0.79087 -4.86684,-4.62705 -5.30313,-5.67124 -0.29196,-0.69878 -0.37032,-2.50565 -0.3658,-8.43414 0.005,-6.81334 0.0532,-7.64654 0.49583,-8.59343 0.62899,-1.34579 4.83669,-5.49112 6.10895,-6.01843 1.45932,-0.60481 14.39114,-0.59791 14.99706,0.007 0.33009,0.33009 0.41193,1.05628 0.41193,3.65507 0,4.28034 0.32158,4.05925 -5.90499,4.05925 h -4.7398 l -0.83782,0.86444 -0.83785,0.86442 v 5.26864 5.26865 l 0.92661,0.81357 0.92659,0.81355 h 4.82171 c 4.03384,0 4.88899,0.0673 5.23362,0.41194 0.32974,0.32973 0.41193,1.05393 0.41193,3.62929 0,2.78402 -0.0646,3.27579 -0.47938,3.65119 -0.42057,0.38063 -1.28078,0.43108 -7.01217,0.41131 -3.59304,-0.0124 -6.85552,-0.1197 -7.24999,-0.23848 z m 18.01765,-0.35847 c -0.35613,-0.54353 -0.39706,-2.36015 -0.33371,-14.82041 0.0624,-12.28444 0.12525,-14.23448 0.46539,-14.4494 0.64701,-0.40883 8.52947,-0.325 8.87756,0.0944 0.20035,0.24141 0.31261,3.65641 0.35977,10.94422 l 0.0684,10.59333 5.09183,0.0714 c 3.21492,0.0451 5.21994,0.17767 5.43936,0.35978 0.25681,0.21314 0.34751,1.20118 0.34751,3.78594 0,3.18963 -0.0446,3.52141 -0.50705,3.76888 -0.32261,0.17266 -3.94362,0.27137 -9.95517,0.27137 h -9.44812 l -0.4059,-0.61948 z m 23.61168,0.20755 c -0.36444,-0.36444 -0.41193,-2.06567 -0.41193,-14.75833 0,-10.80878 0.0776,-14.42396 0.31457,-14.66095 0.218,-0.218 1.58031,-0.31456 4.43761,-0.31456 3.39871,0 4.19542,0.0723 4.53497,0.41192 0.36437,0.36437 0.41193,2.05482 0.41193,14.63905 0,13.45009 -0.0262,14.25083 -0.47938,14.66096 -0.69318,0.62733 -8.18373,0.64595 -8.80777,0.0219 z m 13.71005,-0.0216 c -0.29518,-0.35564 -0.35978,-2.98404 -0.35978,-14.63938 0,-11.65533 0.0646,-14.28373 0.35978,-14.63939 0.32386,-0.39023 1.4239,-0.4335 11.02286,-0.4335 7.94402,0 10.74332,0.0802 10.97767,0.31457 0.21158,0.21157 0.31456,1.40258 0.31456,3.63782 0,2.76901 -0.0721,3.38327 -0.43276,3.68303 -0.32828,0.27289 -1.89495,0.39141 -6.48791,0.49084 l -6.05512,0.13106 v 2.22818 2.22816 l 5.11169,0.0687 c 4.4302,0.0596 5.15534,0.12734 5.43933,0.50883 0.21833,0.29331 0.32768,1.4624 0.32768,3.50365 0,2.52703 -0.0758,3.12643 -0.43264,3.42321 -0.31983,0.26597 -1.73793,0.39394 -5.43933,0.49082 l -5.00673,0.13109 -0.0694,4.32525 c -0.0592,3.68973 -0.13393,4.37341 -0.50884,4.65294 -0.30644,0.22845 -1.64484,0.32767 -4.42043,0.32767 -3.38325,0 -4.03495,-0.0651 -4.34069,-0.43349 z m 25.3484,0.0216 c -0.36444,-0.36444 -0.41193,-2.06567 -0.41193,-14.75833 0,-10.80878 0.0776,-14.42396 0.31456,-14.66095 0.45202,-0.45202 21.46267,-0.45202 21.91467,0 0.21307,0.21304 0.3146,1.43679 0.3146,3.79176 0,3.16951 -0.0453,3.50122 -0.50704,3.74856 -0.30653,0.16406 -2.84611,0.27137 -6.4224,0.27137 h -5.91532 v 2.35924 2.35923 h 5.07959 c 4.01578,0 5.14287,0.0762 5.38185,0.36422 0.20273,0.24427 0.27806,1.47072 0.2287,3.72403 -0.073,3.33391 -0.0786,3.36119 -0.72892,3.5417 -0.36045,0.10004 -2.74917,0.19366 -5.30829,0.20804 l -4.65293,0.0262 v 4.28463 c 0,3.81798 -0.0522,4.33188 -0.47937,4.71847 -0.69318,0.62732 -8.18373,0.64594 -8.80777,0.0219 z m 24.65407,0.0132 c -0.34753,-0.34747 -0.42507,-1.0342 -0.42507,-3.7617 0,-2.24565 0.1028,-3.43949 0.3145,-3.65121 0.2283,-0.22826 2.1541,-0.31456 7.01938,-0.31456 7.25713,0 7.86999,-0.11026 7.86999,-1.41599 0,-1.30455 -0.59262,-1.46751 -5.33731,-1.46751 -5.0518,0 -5.50439,-0.12099 -7.54027,-2.01587 -2.04806,-1.90629 -2.31371,-2.6939 -2.3206,-6.87958 0,-3.00161 0.0718,-3.68266 0.52218,-4.61217 0.65474,-1.35254 4.07755,-4.71197 5.33691,-5.23819 1.23361,-0.51542 16.90512,-0.5835 17.41293,-0.0757 0.21307,0.21305 0.31459,1.43679 0.31459,3.79177 0,3.16953 -0.0452,3.50122 -0.50702,3.74856 -0.309,0.16536 -2.95559,0.27136 -6.77497,0.27136 -5.96611,0 -6.29102,0.0257 -6.74949,0.53222 -0.38133,0.42135 -0.4296,0.6807 -0.23166,1.24514 l 0.25013,0.71295 4.84385,0.14461 c 3.76197,0.11233 5.01957,0.23963 5.63028,0.56993 1.08895,0.58891 3.71333,3.3228 4.04876,4.21759 0.35215,0.93964 0.35864,7.08219 0.01,8.34164 -0.29455,1.06068 -3.87805,4.87938 -5.31747,5.66658 -0.73897,0.40411 -1.84029,0.46702 -9.39029,0.53646 -7.60544,0.07 -8.60022,0.0316 -8.97821,-0.3464 z m -89.81414,-51.0232 c -0.69354,-0.21418 -3.76457,-3.14124 -12.58259,-11.9928 -25.14232,-25.23793 -43.67602,-44.14412 -44.30119,-45.19156 -0.84602,-1.41749 -0.92443,-4.22625 -0.16087,-5.76329 0.57166,-1.15071 -0.65344,0.11605 23.88164,-24.69408 10.40813,-10.52481 21.73139,-21.99409 25.16281,-25.4873 6.87665,-7.00045 7.50291,-7.46335 10.0973,-7.46335 2.58822,0 3.22844,0.47105 9.9655,7.33207 3.3594,3.42123 14.62525,14.83164 25.03517,25.35645 25.65005,25.93311 23.88045,24.07426 24.39609,25.62669 0.55475,1.67018 0.36525,3.78409 -0.46412,5.17718 -0.33391,0.56089 -4.20496,4.6558 -8.6023,9.09981 -4.39735,4.44402 -16.65317,16.83691 -27.23516,27.53978 -10.58198,10.70286 -19.64291,19.70877 -20.1354,20.01316 -1.05122,0.6497 -3.65549,0.88001 -5.05688,0.44724 z m 23.33021,-34.69003 21.10082,-21.10203 h -9.2772 -9.2772 l -7.93981,8.06073 -7.93981,8.06071 -11.02611,-11.00703 -11.02609,-11.00705 -2.95471,2.94633 -2.9547,2.94631 h -11.13612 -11.13612 l 21.10083,21.10203 c 11.60545,11.60614 21.16034,21.10206 21.23311,21.10206 0.0727,0 9.62766,-9.49592 21.23311,-21.10206 z m 9.04587,-30.01469 h 12.05577 l -21.16737,-21.16739 -21.16738,-21.16738 -21.16738,21.16738 -21.16737,21.16738 h 8.386 8.38601 l 5.70458,-5.70018 5.7046,-5.70016 10.94194,10.94194 10.94194,10.94194 5.24646,-5.24177 5.24645,-5.24177 z" />
  </g>
  <g
     id="walls-layer"
     inkscape:groupmode="layer"
     inkscape:label="Walls"
     style="display:inline">
    <path
       id="wall-auto-belay"
       style="display:inline;opacity:1;fill:none;stroke:#000000;stroke-width:2.25"
       d="m 171.13189,267.27247 v 13.13487 l -64.95409,0.97295 -10.825682,9.72953 -37.889893,18.4861 -6.766052,37.94517 4.059633,30.64803 -4.510697,30.64801 -10.374617,19.94554 -7.217121,54.97185 20.298156,14.1078 14.885319,23.83736 -0.90215,23.83735 18.493876,19.94553 h 18.042798 l -1.80428,42.32346 28.86849,14.10783 0.45108,15.08076" />
    <path
       id="wall-fox"
       style="display:inline;opacity:1;fill:none;stroke:#000000;stroke-width:2.25"
       d="m 218.94532,636.99461 -1.80428,-81.24158 h -12.17889 l 1.35321,-84.64691 15.33638,-22.86439 h 11.72782 v 0" />
    <path
       id="wall-slab"
       style="display:inline;opacity:1;fill:none;stroke:#000000;stroke-width:2.25"
       d="m 247.36274,278.46143 -0.45107,-12.64839 215.16045,-0.48647 V 277.002" />
    <path
       id="wall-mezzanine"
       style="display:inline;opacity:1;fill:none;stroke:#000000;stroke-width:2.25"
       d="m 40.321563,214.73301 c 1.052497,-10.05384 2.104994,-20.1077 3.157491,-30.16153 -1.997065,-4.37998 -4.689765,-8.63183 -6.250436,-13.09219 1.32129,-8.2179 2.168875,-16.64457 3.78611,-24.73205 2.9133,-4.7528 6.522974,-9.14449 9.006393,-14.1202 2.425562,-9.75185 5.372862,-19.41446 7.473116,-29.22195 C 57.934645,91.055947 58.375043,78.70682 58.81544,66.357681 56.409727,66.195521 54.004025,66.03336 51.598313,65.8712" />
    <path
       id="wall-back-wall"
       style="display:inline;opacity:1;fill:none;stroke:#000000;stroke-width:2.25"
       d="m 722.79064,69.424117 74.42656,-1.2e-5 16.68958,19.606601 35.18347,-19.0464 57.28591,-0.560189 44.20487,9.523205 15.36326,-7.806674 c 0,0 66.66401,-2.276709 74.39971,-2.276709 14.8853,0 87.0565,-0.5602 87.0565,-0.5602 l 23.4557,26.889029 c 1.4996,60.542032 -0.4511,183.181512 -0.4511,183.181512 l -52.7775,6.5514 -31.5726,-4.31065 -20.2982,15.12507 0.9021,21.84734 86.1545,2.80095 29.3195,50.97711 0.9021,92.99122 -7.2566,21.85004 1.8437,84.5857 9.9236,24.64828 -3.1574,14.56489 -1.3532,23.52791 -19.8472,0.56018 -36.0855,-12.88432 -50.0689,-17.36585 -41.9495,-22.40751 h -44.65589 l 0.45107,55.45862" />
    <path
       id="wall-island"
       style="display:inline;opacity:1;fill:none;stroke:#000000;stroke-width:2.25"
       d="m 783.23402,318.70783 c 0,0 1.80429,10.64356 22.55351,18.48621 4.5476,0.24554 35.24415,2.05842 35.24415,2.05842 l 6.77398,11.39064 c 0,0 30.40301,9.95392 33.31057,11.75939 7.21713,4.4815 19.39603,33.61129 19.39603,33.61129 0,0 21.20028,5.60188 25.71098,8.963 4.5107,3.36113 32.32004,41.05971 55.93269,25.20848 16.6896,-11.20377 16.23853,-29.12979 15.33639,-40.33354 -0.33973,-4.21912 -3.64175,-18.56827 -4.39686,-28.58285 -1.25007,-16.57896 0.33723,-26.87579 0.33723,-26.87579 0,0 -23.84681,-39.09864 -46.26227,-50.99232 -34.04844,-18.06619 -75.04551,-25.30915 -75.04551,-25.30915 0,0 -28.39379,7.76694 -34.31142,7.95854 -13.36242,1.03719 -30.22169,10.08337 -40.5963,21.84733 -13.08103,14.0047 -13.98317,30.81035 -13.98317,30.81035 z" />
    <path
       id="wall-red"
       style="display:inline;opacity:1;fill:none;stroke:#000000;stroke-width:2.25"
       d="m 856.05982,635.10551 0.45106,-12.71402 -67.6605,0.52974 -0.90214,-59.86189 -6.76606,0.52975 v -31.78507 l 6.76606,-0.52976 -1.27589,-103.18043 -13.98317,0.52974 -0.90214,0.52975" />
    <path
       id="wall-boulders"
       style="display:inline;opacity:1;fill:none;stroke:#000000;stroke-width:2.25"
       d="m 682.19431,130.0861 h -9.92354 l -1.3532,-25.78326 -14.43425,-18.486101 h -46.00915 c 0,0 -0.0478,20.049861 -4.05963,29.675061 -4.01181,9.6252 -12.026,16.21496 -20.29816,17.51316 0,0 -9.53773,-10.21995 -11.27675,-17.99963 -1.73901,-7.77968 -0.39116,-17.883194 -9.02139,-22.864404 -8.63024,-4.981201 -17.59174,-2.432378 -17.59174,-2.432378 0,0 -17.30446,2.586393 -23.90672,5.83773 -6.60226,3.251326 -10.3136,9.037132 -15.33639,12.161902 -5.02279,3.12478 -14.43424,6.81066 -14.43424,6.81066 -26.88173,-11.02781 -69.53976,-10.63194 -93.82258,-0.48646 L 355.61956,79.492555 301.63834,79.280386 266.30768,103.81638 c -30.02736,0.0679 -101.94086,4.38249 -101.94086,4.38249 l -49.19471,51.70586 5.43994,76.23324 68.56264,0.97296 v 10.70248" />
  </g>
</svg>
