<?xml version="1.0" encoding="UTF-8" standalone="no"?>
<!-- Copyright Charlie Huckel -->

<svg
   xmlns:dc="http://purl.org/dc/elements/1.1/"
   xmlns:cc="http://creativecommons.org/ns#"
   xmlns:rdf="http://www.w3.org/1999/02/22-rdf-syntax-ns#"
   xmlns:svg="http://www.w3.org/2000/svg"
   xmlns="http://www.w3.org/2000/svg"
   xmlns:xlink="http://www.w3.org/1999/xlink"
   xmlns:sodipodi="http://sodipodi.sourceforge.net/DTD/sodipodi-0.dtd"
   xmlns:inkscape="http://www.inkscape.org/namespaces/inkscape"
   version="1.1"
   id="cliffs-lic-floorplan"
   width="1200"
   height="650"
   viewBox="0 0 1200 650"
   sodipodi:docname="cliffsmap.svg"
   inkscape:version="0.92.5 (0.92.5+68)">
  <metadata
     id="metadata3773">
    <rdf:RDF>
      <cc:Work
         rdf:about="">
        <dc:format>image/svg+xml</dc:format>
        <dc:type
           rdf:resource="http://purl.org/dc/dcmitype/StillImage" />
        <dc:title />
      </cc:Work>
    </rdf:RDF>
  </metadata>
  <defs
     id="defs3771">
    <pattern
       inkscape:collect="always"
       xlink:href="#Strips1_2white"
       id="whitestripes"
       patternTransform="matrix(1.2,1.2,-14,14,0,0)" />
    <pattern
       inkscape:stockid="Stripes 1:2 white"
       id="Strips1_2white"
       patternTransform="translate(0,0) scale(10,10)"
       height="1"
       width="3"
       patternUnits="userSpaceOnUse"
       inkscape:collect="always">
      <rect
         id="rect1567"
         height="2"
         width="1"
         y="-0.5"
         x="0"
         style="fill:white;stroke:none" />
    </pattern>
  </defs>
  <g
     id="pads-layer"
     inkscape:groupmode="layer"
     inkscape:label="Pads"
     style="display:inline">
    <path
       id="paddingslab"
       style="display:inline;fill:#cde5ff;fill-opacity:1;stroke:none"
       d="m 246.91169,265.81305 215.16045,-0.48646 v 11.67543 l 16.44538,-0.38853 -0.79084,-61.77114 -8.89245,-9.02631 -15.69258,-4.51316 -61.20553,6.13521 c -11.84539,1.18737 -119.66485,3.42742 -148.02878,7.96842 l -10.63091,11.54289 -2.88008,52.02367 16.96641,-0.51162 z" />
    <path
       id="padding45buddha3dprow"
       style="display:inline;fill:#cde5ff;fill-opacity:1;stroke:none"
       d="m 672.2708,130.0861 -1.3532,-25.78325 -14.43424,-18.486112 h -46.00915 c 0,0 -0.0479,20.049872 -4.05965,29.675072 -4.0118,9.62519 -12.02599,16.21496 -20.29815,17.51315 0,0 -9.53773,-10.21995 -11.27674,-17.99963 -1.73903,-7.77967 -0.39117,-17.883194 -9.02141,-22.864404 -8.63024,-4.981193 -17.59173,-2.432366 -17.59173,-2.432366 0,0 -17.30446,2.586381 -23.90673,5.837728 -6.60226,3.251326 -10.31359,9.037122 -15.33638,12.161892 -5.02279,3.1248 -14.43424,6.81067 -14.43424,6.81067 -26.88174,-11.02782 -69.53976,-10.63194 -93.82259,-0.48646 L 355.61958,79.492556 301.63836,79.280384 266.3077,103.81639 c -30.02736,0.0679 -101.94087,4.38249 -101.94087,4.38249 l -49.19471,51.70585 5.43994,76.23327 68.56264,0.97296 -0.54788,10.70249 14.40323,-6.27093 6.61939,-29.74575 28.68406,-22.60679 146.73003,-9.51865 93.77482,-10.11357 116.94272,33.9102 32.54538,-0.59492 53.80951,-44.0622 0.0583,-28.72474 z" />
    <path
       id="paddingmez"
       style="display:inline;fill:#cde5ff;fill-opacity:1;stroke:none"
       d="M 51.598319,65.871206 C 51.435156,50.297001 51.272004,34.722802 51.108842,19.148599 77.02883,18.740502 102.94883,18.332408 128.86882,17.924311 128.18001,29.467099 127.9458,41.143387 126.97438,52.603179 110.95652,85.9341 94.938662,119.26501 78.920807,152.59591 c 0,20.71239 0,41.42475 0,62.13711 -12.866417,0 -25.732834,0 -38.59924,0 1.052497,-10.05384 2.104994,-20.1077 3.157491,-30.16153 -1.997065,-4.37998 -4.689765,-8.63182 -6.250436,-13.09219 1.32129,-8.2179 2.168875,-16.64457 3.78611,-24.73205 2.9133,-4.7528 6.522974,-9.14449 9.006394,-14.12021 2.425559,-9.75184 5.372866,-19.41446 7.473114,-29.22195 0.440407,-12.349133 0.880804,-24.69826 1.321201,-37.047408 -2.405708,-0.162162 -4.811415,-0.324314 -7.217122,-0.486476 z" />
    <path
       id="paddinghighandlowbay"
       style="display:inline;fill:#cde5ff;fill-opacity:1;stroke:none"
       d="m 1127.3998,68.302552 c 0,0 -72.1705,0.560623 -87.0558,0.560623 -7.7357,0 -74.40061,2.27682 -74.40061,2.27682 l -15.36165,7.806939 -44.20504,-9.523093 -57.28619,0.560667 -35.18472,19.046175 -16.68841,-19.606842 h -74.42605 -9.36365 v 29.753768 l 4.98066,11.931501 11.74378,22.53905 37.00956,24.30786 88.60929,11.9315 26.33397,0.44221 29.18037,-15.90868 81.13832,-4.86158 13.52197,12.37373 4.2791,41.85636 -12.45376,25.22382 -83.60533,-25.32385 -50.45524,4.80366 -112.71785,42.10113 -20.49068,57.38867 -0.13989,35.21282 32.78552,19.54893 62.91328,16.56936 28.24146,30.56709 21.55253,39.19526 32.89573,29.50109 62.2626,12.01835 39.36213,-4.82734 36.3864,-52.34809 12.9434,-67.70927 37.6455,12.32105 12.8862,177.76186 -10.9469,0.41589 -22.1991,-21.32563 -52.4029,-18.56715 -78.80697,21.6415 -22.80087,28.7746 -0.72274,43.8173 17.4154,25.59234 31.10694,0.7528 -0.45145,-55.45929 h 44.65649 l 41.95,22.40746 50.0674,17.36425 36.0854,12.88434 19.8485,-0.55801 1.3522,-23.52875 3.1579,-14.56628 -9.9232,-24.64739 -1.8438,-84.5866 7.2569,-21.84943 -0.9028,-92.99103 -29.3203,-50.97674 -86.1529,-2.80059 -0.9029,-21.84682 20.2978,-15.12694 31.5733,4.31146 52.7781,-6.5514 c 0,0 1.9488,-122.63944 0.4494,-183.181456 z M 872.12454,258.09068 c 0,0 40.99647,7.24452 75.04491,25.31069 22.41546,11.89369 46.26296,50.99255 46.26296,50.99255 0,0 -1.58698,10.29523 -0.33692,26.87419 0.75508,10.01457 4.05805,24.36335 4.3978,28.58247 0.90221,11.20374 1.35121,29.13119 -15.33835,40.33498 -23.61265,15.85123 -51.42117,-21.84692 -55.93187,-25.20807 -4.51069,-3.36112 -25.71085,-8.96244 -25.71085,-8.96244 0,0 -12.17781,-29.13098 -19.39493,-33.61248 -2.90756,-1.80545 -33.31115,-11.76044 -33.31115,-11.76044 l -6.77371,-11.38927 c 0,0 -30.69646,-1.8128 -35.24406,-2.05834 -20.74922,-7.84264 -22.55502,-18.48555 -22.55502,-18.48555 0,0 0.90299,-16.80719 13.98403,-30.81188 10.37461,-11.76396 27.23321,-20.80962 40.59564,-21.8468 5.91761,-0.19161 34.31152,-7.95961 34.31152,-7.95961 z" />
    <path
       id="paddingfoxwall"
       style="display:inline;fill:#cde5ff;fill-opacity:1;stroke:none"
       d="m 218.94533,636.99464 -1.80427,-81.24158 h -12.17889 l 1.3532,-84.64691 15.33638,-22.86439 h 11.72782 v 0 -11.18964 h -44.93804 l -19.90679,19.15243 -8.73094,32.1813 v 78.09279 l 20.76065,22.39024 v 38.22727 l 6.07629,9.82984 z" />
    <path
       id="paddingredwall"
       style="display:inline;fill:#cde5ff;fill-opacity:1;stroke:none"
       d="m 772.149,408.97358 31.34283,-1.15032 21.54821,23.00628 14.69196,37.96034 -0.60127,102.08181 42.59214,55.85968 0.42281,8.60115 -26.08582,-0.22697 0.45107,-12.71403 -67.66052,0.52975 -0.90214,-59.8619 -6.76605,0.52975 v -31.78507 l 6.76605,-0.52977 -1.27588,-103.18042 -13.98317,0.52973 z" />
    <path
       id="paddingautobelay"
       style="display:inline;fill:#cde5ff;fill-opacity:1;stroke:none"
       d="m 171.13191,267.27249 v 13.13486 l -64.9541,0.97295 -10.82568,9.72954 -37.8899,18.48612 -6.766051,37.94514 4.059631,30.64804 -4.510701,30.64802 -10.374612,19.94553 -7.217123,54.97185 20.298155,14.10782 14.885324,23.83734 -0.90215,23.83736 18.493874,19.94553 h 18.042803 l -1.80428,42.32346 28.86849,14.10784 0.45108,15.08075 h 21.38469 l 3.6242,-6.77003 V 605.15716 L 131.35145,576.55822 108.41447,518.65878 81.202762,465.36959 94.092523,403.58505 v -57.15073 l 97.457207,-29.34766 v -49.39834 z" />
    <path
       id="paddingpractice"
       style="display:inline;fill:#cde5ff;fill-opacity:1;stroke:none"
       d="m 618.47112,283.30174 v 16.46095 l 5.18004,4.61825 h 15.58824 l 4.84507,-4.84507 v -16.26721 l -4.75173,-4.31995 h -16.41276 z" />
  </g>
  <g
     id="structures-layer"
     inkscape:groupmode="layer"
     inkscape:label="Structures"
     style="display:inline">
    <path
       id="structure-lockers-weights"
       style="display:inline;opacity:1;fill:#eeeeee"
       d="m 462.07214,277.00202 v -11.67543 l -215.16045,0.48646 0.45107,12.6484 h -14.49244 l 0.25463,169.61115 0.25462,0.16916 h -11.72782 l -15.33638,22.86439 -1.3532,84.64691 h 12.17889 l 1.80427,81.24158 220.18212,-0.85169 V 385.78366 h 23.22873 l -0.28404,-108.78164 v 0" />
    <path
       id="structure-front-desk"
       style="display:inline;opacity:1;fill:#eeeeee"
       d="m 498.03214,299.9141 0.0699,31.36021 h 37.0247 l -0.0861,41.45711 h -72.68522 v 13.05146 h -23.22656 l -0.0508,20.25968 H 569.56049 V 299.9141 Z" />
    <path
       id="cliffs-logo"
       style="display:inline;opacity:1;fill:#e8e8e8"
       d="m 491.13903,622.78585 c -0.40033,-0.29658 -0.44862,-1.33516 -0.50884,-10.94424 l -0.0665,-10.61656 -3.53887,-0.13106 c -1.94636,-0.0721 -3.6863,-0.2265 -3.86651,-0.34315 -0.45124,-0.29204 -0.46305,-7.01861 -0.013,-7.46854 0.2355,-0.23549 3.32791,-0.31456 12.30173,-0.31456 10.5479,0 12.03662,0.0495 12.3991,0.41192 0.32844,0.32845 0.41193,1.04572 0.41193,3.53886 0,4.246 0.0753,4.17547 -4.45633,4.17547 h -3.40779 v 10.48548 c 0,10.13598 -0.0175,10.50298 -0.52428,11.00977 -0.47707,0.47708 -0.87378,0.52428 -4.40623,0.52428 -2.69491,0 -4.0172,-0.1002 -4.32426,-0.32767 z m 20.19899,0.0445 c -0.42814,-0.24938 -0.45874,-1.23341 -0.45874,-14.75035 0,-10.91516 0.0774,-14.56066 0.31457,-14.79773 0.49499,-0.49499 8.43313,-0.43599 8.84956,0.0657 0.22135,0.26669 0.30899,1.73527 0.29334,4.91507 -0.0123,2.49411 0.0759,4.6861 0.19603,4.87111 0.16224,0.24992 1.02136,0.31728 3.34315,0.26212 l 3.12479,-0.0742 0.0717,-4.83001 c 0.0448,-3.02076 0.17957,-4.96007 0.35977,-5.17721 0.45682,-0.55043 8.42908,-0.493 8.98682,0.0648 0.36438,0.36438 0.41193,2.05717 0.41193,14.66482 v 14.25289 l -0.5826,0.40806 c -0.46313,0.32439 -1.36353,0.40725 -4.39079,0.40407 -2.09452,-0.002 -3.98515,-0.11565 -4.20142,-0.25208 -0.32024,-0.20203 -0.41752,-1.2106 -0.52427,-5.43534 l -0.13108,-5.18727 h -3.2767 -3.27672 l -0.0687,5.11169 c -0.0596,4.4302 -0.12733,5.15535 -0.50884,5.43934 -0.54586,0.40633 -7.84518,0.44443 -8.53177,0.0445 z m 29.88364,0 c -0.42813,-0.24938 -0.45874,-1.23341 -0.45874,-14.75035 0,-10.91516 0.0775,-14.56066 0.31457,-14.79773 0.4521,-0.45209 21.72471,-0.45209 22.1768,0 0.21305,0.21305 0.31457,1.43679 0.31457,3.79176 0,3.16954 -0.0449,3.50123 -0.50704,3.74857 -0.30757,0.16461 -2.89086,0.27136 -6.56651,0.27136 h -6.05947 l 0.0786,1.50729 0.0786,1.5073 5.3618,0.0711 c 3.88788,0.0516 5.41805,0.15967 5.5664,0.39322 0.34262,0.53934 0.25433,6.33574 -0.10193,6.692 -0.224,0.22401 -1.84662,0.31457 -5.63595,0.31457 h -5.32139 v 1.70389 1.70389 h 6.23887 c 4.50293,0 6.32638,0.0876 6.55343,0.31456 0.21303,0.21305 0.31455,1.4368 0.31455,3.79176 0,3.16952 -0.045,3.50122 -0.50703,3.74857 -0.68676,0.36754 -21.2079,0.35648 -21.84016,-0.0118 z m 41.42136,0.0221 c -0.39445,-0.11877 -1.11595,-0.46239 -1.6033,-0.7636 -1.27964,-0.79087 -4.86684,-4.62705 -5.30313,-5.67124 -0.29196,-0.69878 -0.37032,-2.50565 -0.3658,-8.43414 0.005,-6.81334 0.0532,-7.64654 0.49583,-8.59343 0.62899,-1.34579 4.83669,-5.49112 6.10895,-6.01843 1.45932,-0.60481 14.39114,-0.59791 14.99706,0.007 0.33009,0.33009 0.41193,1.05628 0.41193,3.65507 0,4.28034 0.32158,4.05925 -5.90499,4.05925 h -4.7398 l -0.83782,0.86444 -0.83785,0.86442 v 5.26864 5.26865 l 0.92661,0.81357 0.92659,0.81355 h 4.82171 c 4.03384,0 4.88899,0.0673 5.23362,0.41194 0.32974,0.32973 0.41193,1.05393 0.41193,3.62929 0,2.78402 -0.0646,3.27579 -0.47938,3.65119 -0.42057,0.38063 -1.28078,0.43108 -7.01217,0.41131 -3.59304,-0.0124 -6.85552,-0.1197 -7.24999,-0.23848 z m 18.01765,-0.35847 c -0.35613,-0.54353 -0.39706,-2.36015 -0.33371,-14.82041 0.0624,-12.28444 0.12525,-14.23448 0.46539,-14.4494 0.64701,-0.40883 8.52947,-0.325 8.87756,0.0944 0.20035,0.24141 0.31261,3.65641 0.35977,10.94422 l 0.0684,10.59333 5.09183,0.0714 c 3.21492,0.0451 5.21994,0.17767 5.43936,0.35978 0.25681,0.21314 0.34751,1.20118 0.34751,3.78594 0,3.18963 -0.0446,3.52141 -0.50705,3.76888 -0.32261,0.17266 -3.94362,0.27137 -9.95517,0.27137 h -9.44812 l -0.4059,-0.61948 z m 23.61168,0.20755 c -0.36444,-0.36444 -0.41193,-2.06567 -0.41193,-14.75833 0,-10.80878 0.0776,-14.42396 0.31457,-14.66095 0.218,-0.218 1.58031,-0.31456 4.43761,-0.31456 3.39871,0 4.19542,0.0723 4.53497,0.41192 0.36437,0.36437 0.41193,2.05482 0.41193,14.63905 0,13.45009 -0.0262,14.25083 -0.47938,14.66096 -0.69318,0.62733 -8.18373,0.64595 -8.80777,0.0219 z m 13.71005,-0.0216 c -0.29518,-0.35564 -0.35978,-2.98404 -0.35978,-14.63938 0,-11.65533 0.0646,-14.28373 0.35978,-14.63939 0.32386,-0.39023 1.4239,-0.4335 11.02286,-0.4335 7.94402,0 10.74332,0.0802 10.97767,0.31457 0.21158,0.21157 0.31456,1.40258 0.31456,3.63782 0,2.76901 -0.0721,3.38327 -0.43276,3.68303 -0.32828,0.27289 -1.89495,0.39141 -6.48791,0.49084 l -6.05512,0.13106 v 2.22818 2.22816 l 5.11169,0.0687 c 4.4302,0.0596 5.15534,0.12734 5.43933,0.50883 0.21833,0.29331 0.32768,1.4624 0.32768,3.50365 0,2.52703 -0.0758,3.12643 -0.43264,3.42321 -0.31983,0.26597 -1.73793,0.39394 -5.43933,0.49082 l -5.00673,0.13109 -0.0694,4.32525 c -0.0592,3.68973 -0.13393,4.37341 -0.50884,4.65294 -0.30644,0.22845 -1.64484,0.32767 -4.42043,0.32767 -3.38325,0 -4.03495,-0.0651 -4.34069,-0.43349 z m 25.3484,0.0216 c -0.36444,-0.36444 -0.41193,-2.06567 -0.41193,-14.75833 0,-10.80878 0.0776,-14.42396 0.31456,-14.66095 0.45202,-0.45202 21.46267,-0.45202 21.91467,0 0.21307,0.21304 0.3146,1.43679 0.3146,3.79176 0,3.16951 -0.0453,3.50122 -0.50704,3.74856 -0.30653,0.16406 -2.84611,0.27137 -6.4224,0.27137 h -5.91532 v 2.35924 2.35923 h 5.07959 c 4.01578,0 5.14287,0.0762 5.38185,0.36422 0.20273,0.24427 0.27806,1.47072 0.2287,3.72403 -0.073,3.33391 -0.0786,3.36119 -0.72892,3.5417 -0.36045,0.10004 -2.74917,0.19366 -5.30829,0.20804 l -4.65293,0.0262 v 4.28463 c 0,3.81798 -0.0522,4.33188 -0.47937,4.71847 -0.69318,0.62732 -8.18373,0.64594 -8.80777,0.0219 z m 24.65407,0.0132 c -0.34753,-0.34747 -0.42507,-1.0342 -0.42507,-3.7617 0,-2.24565 0.1028,-3.43949 0.3145,-3.65121 0.2283,-0.22826 2.1541,-0.31456 7.01938,-0.31456 7.25713,0 7.86999,-0.11026 7.86999,-1.41599 0,-1.30455 -0.59262,-1.46751 -5.33731,-1.46751 -5.0518,0 -5.50439,-0.12099 -7.54027,-2.01587 -2.04806,-1.90629 -2.31371,-2.6939 -2.3206,-6.87958 0,-3.00161 0.0718,-3.68266 0.52218,-4.61217 0.65474,-1.35254 4.07755,-4.71197 5.33691,-5.23819 1.23361,-0.51542 16.90512,-0.5835 17.41293,-0.0757 0.21307,0.21305 0.31459,1.43679 0.31459,3.79177 0,3.16953 -0.0452,3.50122 -0.50702,3.74856 -0.309,0.16536 -2.95559,0.27136 -6.77497,0.27136 -5.96611,0 -6.29102,0.0257 -6.74949,0.53222 -0.38133,0.42135 -0.4296,0.6807 -0.23166,1.24514 l 0.25013,0.71295 4.84385,0.14461 c 3.76197,0.11233 5.01957,0.23963 5.63028,0.56993 1.08895,0.58891 3.71333,3.3228 4.04876,4.21759 0.35215,0.93964 0.35864,7.08219 0.01,8.34164 -0.29455,1.06068 -3.87805,4.87938 -5.31747,5.66658 -0.73897,0.40411 -1.84029,0.46702 -9.39029,0.53646 -7.60544,0.07 -8.60022,0.0316 -8.97821,-0.3464 z m -89.81414,-51.0232 c -0.69354,-0.21418 -3.76457,-3.14124 -12.58259,-11.9928 -25.14232,-25.23793 -43.67602,-44.14412 -44.30119,-45.19156 -0.84602,-1.41749 -0.92443,-4.22625 -0.16087,-5.76329 0.57166,-1.15071 -0.65344,0.11605 23.88164,-24.69408 10.40813,-10.52481 21.73139,-21.99409 25.16281,-25.4873 6.87665,-7.00045 7.50291,-7.46335 10.0973,-7.46335 2.58822,0 3.22844,0.47105 9.9655,7.33207 3.3594,3.42123 14.62525,14.83164 25.03517,25.35645 25.65005,25.93311 23.88045,24.07426 24.39609,25.62669 0.55475,1.67018 0.36525,3.78409 -0.46412,5.17718 -0.33391,0.56089 -4.20496,4.6558 -8.6023,9.09981 -4.39735,4.44402 -16.65317,16.83691 -27.23516,27.53978 -10.58198,10.70286 -19.64291,19.70877 -20.1354,20.01316 -1.05122,0.6497 -3.65549,0.88001 -5.05688,0.44724 z m 23.33021,-34.69003 21.10082,-21.10203 h -9.2772 -9.2772 l -7.93981,8.06073 -7.93981,8.06071 -11.02611,-11.00703 -11.02609,-11.00705 -2.95471,2.94633 -2.9547,2.94631 h -11.13612 -11.13612 l 21.10083,21.10203 c 11.60545,11.60614 21.16034,21.10206 21.23311,21.10206 0.0727,0 9.62766,-9.49592 21.23311,-21.10206 z m 9.04587,-30.01469 h 12.05577 l -21.16737,-21.16739 -21.16738,-21.16738 -21.16738,21.16738 -21.16737,21.16738 h 8.386 8.38601 l 5.70458,-5.70018 5.7046,-5.70016 10.94194,10.94194 10.94194,10.94194 5.24646,-5.24177 5.24645,-5.24177 z" />
  </g>
  <g
     inkscape:groupmode="layer"
     id="walkways-layer"
     inkscape:label="Walkways"
     style="display:none">
    <path
       id="walkway-mezzanine"
       style="fill:none;stroke:#000000;stroke-linecap:square"
       d="m 131.87325,67.66848 c 0,0 -17.23466,29.445715 -25.93669,58.5702 -9.499225,31.79257 -14.043059,112.99019 4.90023,127.54257 11.35791,8.72523 103.21772,5.03658 103.21772,5.03658" />
    <path
       id="walkway-fox"
       style="fill:none;stroke:#000000;stroke-linecap:square"
       d="m 168.72532,636.56108 c 0,0 4.724,-27.71994 0,-40.29261 -4.70782,-12.52963 -20.98009,-17.9997 -26.44203,-30.21946 -16.91001,-37.83204 -20.18017,-82.26825 -15.10973,-123.39613 2.8612,-23.20809 12.44073,-45.86837 25.18288,-65.4755 15.84867,-24.38733 43.83098,-30.33603 54.96123,-57.20683 7.22781,-17.44946 6.73684,-61.15272 6.73684,-61.15272 v 0" />
    <path
       id="walkway-boulders"
       style="fill:none;stroke:#000000;stroke-linecap:square"
       d="m 686.38601,205.91557 c 0,0 -30.47661,21.75277 -48.11778,26.88935 -15.87854,4.62336 -49.53301,2.83046 -49.53301,2.83046 0,0 -61.29368,-37.71575 -102.57509,-44.74936 -78.80456,3.00276 -261.54818,-1.95063 -264.94706,28.30712 -6.59569,11.68966 -7.15856,39.62469 -7.15856,39.62469 v 0" />
    <path
       id="walkway-highbays"
       style="fill:none;stroke:#000000;stroke-linecap:square"
       d="m 1007.8101,185.68459 c 0,0 -70.05057,-3.38607 -104.98024,-1.23506 -24.46547,1.50661 -48.47984,7.42771 -72.86862,9.88049 -31.19848,3.13763 -62.62753,3.44918 -93.86466,6.17531 -16.60492,1.44915 -49.71057,5.41024 -49.71057,5.41024" />
    <path
       id="walkway-lowbay-right"
       style="fill:none;stroke:#000000;stroke-linecap:square"
       d="m 1078.2086,370.9438 c 0,0 -3.0874,43.61264 -3.7052,65.45825 -0.4306,15.22634 0.4753,30.47226 0,45.69727 -0.206,6.59663 3.9969,15.73806 -1.2351,19.76098 -9.9848,7.67737 -24.4583,-7.61707 -37.0518,-7.41037 -27.0583,0.44412 -52.37429,13.93455 -79.04393,18.52593 -26.17954,4.50701 -78.42376,12.26014 -78.42376,12.26014"
       inkscape:connector-curvature="0"
       sodipodi:nodetypes="cscsssc" />
    <path
       id="walkway-lowbay-left"
       style="fill:none;stroke:#000000;stroke-linecap:square"
       d="m 686.38601,205.91557 c 0,0 -11.69175,64.71809 -8.14729,96.95659 2.69227,24.48744 3.84971,53.9298 22.04108,70.54176 20.21345,18.45848 53.23767,13.04046 80.27899,17.29086 12.26167,1.92731 26.26933,-2.44303 37.05184,3.70518 15.0928,8.60595 21.87606,27.13118 30.87653,41.99209 11.15964,18.42596 23.21954,37.13975 28.40642,58.04788 6.34719,25.58529 -3.77137,53.43266 2.47012,79.04394 5.18823,21.28936 28.40642,59.28294 28.40642,59.28294" />
    <path
       id="walkway-entrance"
       style="fill:none;stroke:#000000;stroke-linecap:square"
       d="M 599.99373,720 588.73522,235.63538" />
  </g>
  <g
     id="avatar-layer"
     inkscape:groupmode="layer"
     inkscape:label="Avatar"
     style="display:none">
    <path
       id="avatar-left-leg-forward"
       style="fill:#282828;fill-opacity:1;stroke:none;stroke-width:0.09948412px;stroke-linecap:butt;stroke-linejoin:miter;stroke-opacity:1"
       d="m 592.63193,640.19644 c 0.24822,0.76763 0.60575,1.54147 0.587,2.34802 -0.0317,1.36152 -0.76296,2.61499 -1.17401,3.91337 -0.31126,0.98317 -0.80337,1.91872 -0.97834,2.93503 -0.57554,3.34304 1.75801,7.40163 -0.19567,10.17476 -1.16508,1.65377 -3.66662,2.3998 -5.67438,2.15235 -1.81368,-0.22353 -4.03333,-1.36398 -4.50037,-3.13069 -0.84999,-3.21528 3.44965,-5.78683 4.3047,-9.00076 0.454,-1.70647 0.16053,-3.53235 0.39134,-5.28304 0.18224,-1.38234 -0.0342,-2.97909 0.78267,-4.10904 1.18026,-1.63258 4.66015,-3.29107 5.28305,-2.93503 0.99282,0.43268 0.84982,1.93243 1.17401,2.93503 z" />
    <path
       id="avatar-right-leg-forward"
       style="fill:#282828;fill-opacity:1;stroke:none;stroke-width:0.09948412px;stroke-linecap:butt;stroke-linejoin:miter;stroke-opacity:1"
       d="m 602.0649,640.19644 c -0.24821,0.76763 -0.60575,1.54147 -0.587,2.34802 0.0317,1.36152 0.76296,2.61499 1.17401,3.91337 0.31126,0.98317 0.80337,1.91872 0.97834,2.93503 0.57554,3.34304 -1.758,7.40163 0.19567,10.17476 1.16509,1.65377 3.66662,2.3998 5.67439,2.15235 1.81368,-0.22353 4.03333,-1.36398 4.50037,-3.13069 0.84999,-3.21528 -3.44965,-5.78683 -4.3047,-9.00076 -0.454,-1.70647 -0.16053,-3.53235 -0.39134,-5.28304 -0.18225,-1.38234 0.0342,-2.97909 -0.78267,-4.10904 -1.18026,-1.63258 -4.66015,-3.29107 -5.28306,-2.93503 -0.99282,0.43268 -0.84982,1.93243 -1.17401,2.93503 z" />
    <path
       id="avatar-right-leg-back"
       style="fill:#282828;fill-opacity:1;stroke:none;stroke-width:0.09948412px;stroke-linecap:butt;stroke-linejoin:miter;stroke-opacity:1"
       d="m 609.46552,684.95312 c -1.00632,0.60818 -2.67713,0.62207 -3.52204,-0.19567 -1.30947,-1.26738 -2.62897,-8.39585 -2.54369,-12.71846 0.0384,-1.9454 -0.14126,-4.44835 1.36968,-5.67438 1.72274,-1.39789 4.84177,-1.47721 6.65274,-0.19567 1.39749,0.98895 1.51278,3.18049 1.56534,4.89171 0.14668,4.77507 -1.43272,12.62977 -3.52203,13.89247 z" />
    <path
       id="avatar-left-leg-back"
       style="fill:#282828;fill-opacity:1;stroke:none;stroke-width:0.09948412px;stroke-linecap:butt;stroke-linejoin:miter;stroke-opacity:1"
       d="m 585.2398,684.95312 c 1.00632,0.60818 2.67714,0.62207 3.52204,-0.19567 1.30947,-1.26738 2.62897,-8.39585 2.54369,-12.71846 -0.0384,-1.9454 0.14125,-4.44835 -1.36968,-5.67438 -1.72274,-1.39789 -4.84177,-1.47721 -6.65273,-0.19567 -1.3975,0.98895 -1.51279,3.18049 -1.56535,4.89171 -0.14667,4.77507 1.43273,12.62977 3.52203,13.89247 z" />
    <path
       id="avatar-left-arm-forward"
       style="fill:#f7c7a7;fill-opacity:1;stroke:none;stroke-width:0.09948412px;stroke-linecap:butt;stroke-linejoin:miter;stroke-opacity:1"
       d="m 588.5538,640.53637 c -1.53761,-2.07203 -5.37956,0.95125 -7.23973,2.73935 -1.68557,1.62027 -1.86198,4.2899 -2.73935,6.45707 -1.83633,4.53583 -6.21928,8.89374 -5.28305,13.69679 0.27368,1.40402 1.55707,2.74676 2.93502,3.1307 2.08855,0.58193 4.86291,-0.10424 6.26139,-1.76102 3.59599,-4.26014 -1.2227,-11.92255 1.76102,-16.63182 0.93991,-1.48349 3.44928,-1.64717 2.93502,-3.32637 -0.40153,-1.31112 -1.51751,1.80243 -2.15235,0.587 -0.9905,-1.89636 4.79699,-3.17362 3.52203,-4.8917 z" />
    <path
       id="avatar-right-arm-forward"
       style="fill:#f7c7a7;fill-opacity:1;stroke:none;stroke-width:0.09948412px;stroke-linecap:butt;stroke-linejoin:miter;stroke-opacity:1"
       d="m 606.17634,640.53637 c 1.53761,-2.07203 5.37956,0.95125 7.23973,2.73935 1.68557,1.62027 1.86198,4.2899 2.73936,6.45707 1.83633,4.53583 6.21928,8.89374 5.28305,13.69679 -0.27368,1.40402 -1.55707,2.74676 -2.93503,3.1307 -2.08855,0.58193 -4.8629,-0.10424 -6.26139,-1.76102 -3.59599,-4.26014 1.2227,-11.92255 -1.76102,-16.63182 -0.93991,-1.48349 -3.44929,-1.64717 -2.93502,-3.32637 0.40153,-1.31112 1.51751,1.80243 2.15235,0.587 0.99051,-1.89636 -4.79699,-3.17362 -3.52203,-4.8917 z" />
    <path
       id="avatar-left-arm-back"
       style="fill:#f7c7a7;fill-opacity:1;stroke:none;stroke-width:0.09948412px;stroke-linecap:butt;stroke-linejoin:miter;stroke-opacity:1"
       d="m 573.89103,663.03824 c 0.92259,-0.85018 3.15209,-1.2781 4.30471,-0.78267 1.16347,0.50009 1.85476,1.89976 2.15235,3.13069 1.0817,4.47429 1.11531,10.10292 -1.76102,13.6968 -0.95404,1.19205 -2.83967,1.99532 -4.3047,1.56535 -1.65225,-0.48492 -2.77778,-2.42366 -3.1307,-4.10904 -0.96293,-4.59857 -0.71566,-10.31727 2.73936,-13.50113 z" />
    <path
       id="avatar-right-arm-back"
       style="fill:#f7c7a7;fill-opacity:1;stroke:none;stroke-width:0.09948412px;stroke-linecap:butt;stroke-linejoin:miter;stroke-opacity:1"
       d="m 620.77564,663.03824 c -0.92259,-0.85018 -3.15209,-1.2781 -4.30471,-0.78267 -1.16348,0.50009 -1.85477,1.89976 -2.15236,3.13069 -1.0817,4.47429 -1.11531,10.10292 1.76102,13.6968 0.95405,1.19205 2.83968,1.99532 4.30471,1.56535 1.65224,-0.48492 2.77778,-2.42366 3.1307,-4.10904 0.96293,-4.59857 0.71566,-10.31727 -2.73936,-13.50113 z" />
    <path
       id="avatar-torso"
       style="fill:#a6caf8;fill-opacity:1;stroke:none;stroke-width:0.09948412px;stroke-linecap:butt;stroke-linejoin:miter;stroke-opacity:1"
       d="m 572.71702,662.64691 c 0.30935,-1.74708 1.66851,-3.29974 3.1307,-4.30471 6.09389,-4.18837 14.03017,-5.78566 21.42456,-5.75247 6.66867,0.0299 15.74803,1.95679 21.23117,5.75247 1.72693,1.19546 3.62253,2.20653 3.7177,4.30471 0.0862,1.8996 -2.4601,5.42208 -3.7177,6.84839 -2.30402,2.61309 -7.09863,4.16368 -10.5661,4.50038 -4.15586,0.40355 -6.4788,-1.45925 -10.37043,-1.36968 -3.65733,0.0842 -6.94644,1.70431 -10.5661,1.17402 -4.67682,-0.68518 -7.20122,-2.97848 -10.17476,-5.08739 -1.54924,-1.09876 -4.44019,-4.1955 -4.10904,-6.06572 z" />
    <g
       id="avatar-head">
      <path
         id="avatar-face"
         style="fill:#f7c7a7;fill-opacity:1;stroke:none;stroke-width:0.09948412px;stroke-linecap:butt;stroke-linejoin:miter;stroke-opacity:1"
         d="m 596.70916,647.99722 c 2.16665,0.006 7.1818,0.73796 8.85557,3.33364 1.67376,2.59567 1.16397,5.31247 1.63626,6.93608 0,0 1.39591,0.044 1.4212,0.28424 0.0253,0.24024 0.53798,5.11082 0.56848,5.40057 0.0305,0.28974 -1.27318,-0.87069 -1.46653,0.97404 -0.14566,1.38979 -0.90112,4.61367 -2.74294,6.08536 -1.84182,1.47169 -4.7825,1.84852 -7.22932,1.88289 -2.44682,0.0344 -5.03724,-0.28313 -7.01279,-1.68288 -1.97555,-1.39974 -2.94169,-4.98746 -4.00341,-6.12245 -1.06172,-1.13499 -2.00489,0.0504 -1.98968,-0.28424 0.0152,-0.33463 0.16629,-4.83608 0.28424,-6.25329 l 1.70544,-0.56848 c 1.27705,-0.42568 0.1231,-3.45076 1.53699,-5.90739 1.41389,-2.45662 6.26985,-4.08407 8.43649,-4.07809 z" />
      <path
         id="avatar-glasses"
         style="fill:none;stroke:#000000;stroke-width:1.664;stroke-linecap:butt;stroke-linejoin:miter;stroke-miterlimit:4;stroke-dasharray:none;stroke-opacity:1"
         d="m 608.13302,664.70143 -1.7121,-12.37604 -8.16916,-1.22293 h -2.64153 l -8.31591,1.46752 -1.02726,13.01196 v 0" />
      <path
         id="avatar-hair"
         style="fill:#5e4335;fill-opacity:1;stroke:none;stroke-width:0.09948412px;stroke-linecap:butt;stroke-linejoin:miter;stroke-opacity:1"
         d="m 596.48961,651.61138 c 2.91237,-0.008 3.22282,1.48955 4.84255,2.21374 1.29568,1.26928 4.30419,0.93248 5.18844,1.79866 2.42285,2.61357 1.58213,7.1558 0.89934,10.65361 -0.32207,1.64985 -0.99876,3.41191 -2.28292,4.49665 -1.95571,1.65199 -4.77333,2.23915 -7.333,2.28292 -2.96452,0.0507 -6.30524,-0.44831 -8.57823,-2.3521 -1.60521,-1.34447 -2.28818,-3.61932 -2.698,-5.6727 -0.63265,-3.16988 -0.96237,-6.54775 0.92272,-9.17356 0.99018,-1.37924 1.92191,-1.06606 3.69032,-1.65424 1.76841,-0.58817 3.93502,-2.58924 5.34878,-2.59298 z" />
    </g>
    <path
       id="avatar-glasses-lens-left"
       style="fill:none;stroke:#ffffff;stroke-width:0.3;stroke-linecap:butt;stroke-linejoin:miter;stroke-miterlimit:4;stroke-dasharray:none;stroke-opacity:1"
       d="m 589.12112,651.44079 5.1228,-0.88048" />
    <path
       id="avatar-glasses-lens-right"
       style="fill:none;stroke:#ffffff;stroke-width:0.30000001;stroke-linecap:butt;stroke-linejoin:miter;stroke-miterlimit:4;stroke-dasharray:none;stroke-opacity:1"
       d="m 605.1244,651.44079 -5.1228,-0.88048" />
  </g>
  <g
     id="roof-layer"
     inkscape:groupmode="layer"
     inkscape:label="Roof"
     style="display:inline">
    <path
       id="roof-lead-cave-routes"
       style="display:inline;fill:url(#whitestripes);fill-opacity:1;stroke:none"
       d="m 1045.757,295.74087 v -22.82558 l -17.7303,-38.00109 36.7093,-94.50148 -0.9431,-71.673996 63.6076,-0.434985 23.4551,26.888795 -0.4505,183.181746 -52.7775,6.5514 -31.5726,-4.31065 z" />
    <path
       id="roof-buddha-boulder"
       style="display:inline;fill:url(#whitestripes);fill-opacity:1;stroke:none"
       d="m 266.3077,103.81639 35.33066,-24.536006 53.98122,0.212172 45.10701,34.539834 -22.54569,6.46873 -17.55031,19.81487 -67.37055,1.13228 -13.0212,-26.0424 z" />
    <path
       id="roof-45-boulder"
       style="display:inline;fill:url(#whitestripes);fill-opacity:1;stroke:none"
       d="m 159.61391,236.78338 -17.8493,-33.98231 80.32184,-97.48463 -57.71963,2.88243 -49.1947,51.70586 5.43994,76.23327 z" />
    <path
       id="roof-moon"
       style="display:inline;opacity:1;fill:#ffffff;fill-opacity:1;stroke:none"
       d="m 81.352843,61.153753 c -2.419615,-0.172596 -4.790802,-0.804201 -6.979398,-1.85909 -2.086448,-1.005651 -3.646814,-2.110513 -5.253071,-3.719586 -1.278023,-1.280266 -2.236535,-2.522756 -3.088807,-4.003939 -4.102845,-7.130411 -3.042423,-16.179571 2.599069,-22.179259 1.552916,-1.65151 3.284548,-2.955152 5.292952,-3.984728 2.001438,-1.026015 4.083541,-1.675509 6.340651,-1.977916 0.934276,-0.125173 3.063103,-0.172553 4.010645,-0.08926 2.583831,0.227134 4.860858,0.85764 7.064915,1.956264 4.603098,2.294445 8.056121,6.265668 9.638681,11.085182 1.51322,4.608321 1.19411,9.586844 -0.89338,13.93809 -3.40607,7.099726 -10.836754,11.397438 -18.732257,10.834242 z m 0.429711,-12.393258 c 1.538435,-0.414812 2.384037,-1.551006 2.604852,-3.500013 0.07744,-0.683552 0.07614,-5.268446 -0.0017,-5.966496 -0.08226,-0.737761 -0.240814,-1.330264 -0.495294,-1.85094 -0.652844,-1.335735 -2.180631,-2.036582 -3.997869,-1.833944 -1.931001,0.215316 -2.990753,1.208593 -3.391178,3.178463 -0.09302,0.457587 -0.104432,0.829875 -0.103615,3.378987 9.9e-4,3.165901 0.02431,3.44106 0.371964,4.393654 0.469164,1.285548 1.382039,2.015741 2.854589,2.283354 0.414109,0.07526 1.763722,0.0233 2.158251,-0.08306 z m -1.952477,-2.635914 c -0.242576,-0.105631 -0.513394,-0.450996 -0.603731,-0.769922 -0.05761,-0.203364 -0.07583,-0.941175 -0.07736,-3.130812 -0.0021,-3.028938 0.0037,-3.104427 0.268609,-3.481964 0.224127,-0.319431 0.76804,-0.482961 1.25734,-0.378025 0.347625,0.07456 0.60167,0.282594 0.758248,0.620935 0.116224,0.251143 0.120763,0.354843 0.137455,3.14025 0.01489,2.48559 0.0048,2.929328 -0.07391,3.236424 -0.100089,0.390687 -0.290086,0.638846 -0.586077,0.765494 -0.233093,0.09973 -0.849174,0.09838 -1.08057,-0.0022 z m 11.119667,2.438926 c 1.503633,-0.392618 2.308511,-1.301611 2.67105,-3.016553 0.250522,-1.185051 0.289101,-5.633276 0.05825,-6.715732 -0.183644,-0.861086 -0.35962,-1.276797 -0.773656,-1.827586 -0.565925,-0.752848 -1.504388,-1.187213 -2.729127,-1.263169 -1.47205,-0.09129 -2.669818,0.522373 -3.2252,1.652403 -0.512197,1.04215 -0.572106,1.639019 -0.542415,5.403927 0.02198,2.783165 0.02902,2.944854 0.148693,3.401953 0.456106,1.742053 1.617486,2.582831 3.447035,2.495472 0.299367,-0.01432 0.724784,-0.07311 0.94537,-0.130715 z m -1.276636,-2.567539 c -0.229504,-0.113115 -0.382065,-0.318299 -0.462054,-0.621422 -0.08947,-0.339068 -0.04556,-5.938009 0.04905,-6.253101 0.132612,-0.441685 0.504035,-0.707709 0.988106,-0.707709 0.319597,0 0.721947,0.203724 0.883936,0.447571 0.242376,0.364858 0.262884,0.671516 0.232494,3.476394 -0.03063,2.826079 -0.04933,3.012602 -0.338669,3.380457 -0.265714,0.337802 -0.947223,0.47775 -1.352875,0.27781 z m -15.348565,1.814136 c -0.0054,-0.362389 -0.03802,-1.200326 -0.07267,-1.862088 -0.03465,-0.661755 -0.07666,-2.427868 -0.09335,-3.924698 -0.03341,-2.995163 -0.07453,-3.456612 -0.379087,-4.253866 -0.290907,-0.761521 -0.72379,-1.240598 -1.393248,-1.541924 -0.344262,-0.154952 -1.313197,-0.21359 -1.813426,-0.109741 -0.407307,0.08456 -0.945482,0.340943 -1.218101,0.580307 -0.187728,0.164828 -0.230984,0.180415 -0.329652,0.118797 -0.517385,-0.323116 -0.936396,-0.409259 -1.430947,-0.294185 -1.08406,0.252242 -1.701886,1.115842 -1.947202,2.721809 -0.101494,0.664424 -0.103455,3.727986 -0.0031,4.726828 0.161003,1.601301 0.375285,2.898145 0.502472,3.04099 0.126845,0.142462 0.991806,0.425217 1.067918,0.349106 0.04583,-0.04583 0.02961,-0.30187 -0.0595,-0.938757 -0.267464,-1.911742 -0.3776,-3.693562 -0.341168,-5.519528 0.02798,-1.402335 0.06099,-1.594336 0.322547,-1.876142 0.2033,-0.219039 0.541093,-0.202382 0.718055,0.0354 0.116334,0.156323 0.121555,0.242637 0.157661,2.606917 0.02054,1.344886 0.06616,2.75464 0.101391,3.132787 0.129342,1.388426 0.310137,2.783038 0.371337,2.864409 0.05389,0.07164 0.597851,0.197111 1.466604,0.338275 0.358825,0.05831 0.365981,0.03418 0.26371,-0.889085 -0.144482,-1.304335 -0.201241,-2.16601 -0.268716,-4.079467 -0.06844,-1.940784 -0.03547,-3.2832 0.09176,-3.736037 0.221722,-0.789175 1.173514,-0.969967 1.53368,-0.291322 0.122261,0.230375 0.125906,0.301293 0.163739,3.186304 0.04164,3.175745 0.202258,5.962117 0.348892,6.052744 0.06209,0.0384 1.956656,0.241628 2.135411,0.229087 0.108088,-0.0076 0.114041,-0.04544 0.104918,-0.666927 z m 21.73034,0.116017 c 0.381385,-0.06223 0.73492,-0.129062 0.785628,-0.148521 0.119842,-0.046 0.134679,-0.101979 0.23432,-0.884213 0.227801,-1.788352 0.320594,-3.411357 0.320594,-5.60728 0,-1.866593 0.02888,-2.146773 0.240822,-2.338607 0.159451,-0.144304 0.471813,-0.125616 0.646713,0.03868 0.23551,0.221254 0.31466,0.613333 0.35289,1.747997 0.0562,1.66749 -0.13209,4.510048 -0.40286,6.08285 -0.0425,0.246821 -0.064,0.483877 -0.0478,0.526785 0.0701,0.18557 1.07855,-0.145858 1.19618,-0.393145 0.1073,-0.22562 0.35249,-1.929259 0.44796,-3.112746 0.10158,-1.258986 0.11424,-3.473658 0.0244,-4.268525 -0.20282,-1.794944 -0.76026,-2.701451 -1.857327,-3.020377 -1.092185,-0.317506 -1.959936,0.274659 -2.315229,1.579965 -0.18589,0.682936 -0.232859,1.339847 -0.233396,3.264085 -5.52e-4,2.003046 -0.05785,3.284959 -0.23361,5.227735 -0.06486,0.716665 -0.101837,1.329005 -0.08219,1.360755 0.04885,0.07904 0.127624,0.07431 0.922873,-0.05543 z" />
  </g>
  <g
     id="walls-layer"
     inkscape:groupmode="layer"
     inkscape:label="Walls"
     style="display:inline">
    <path
       id="wall-auto-belay"
       style="display:inline;opacity:1;fill:none;stroke:#000000;stroke-width:2.25"
       d="m 171.13189,267.27247 v 13.13487 l -64.95409,0.97295 -10.825682,9.72953 -37.889893,18.4861 -6.766052,37.94517 4.059633,30.64803 -4.510697,30.64801 -10.374617,19.94554 -7.217121,54.97185 20.298156,14.1078 14.885319,23.83736 -0.90215,23.83735 18.493876,19.94553 h 18.042798 l -1.80428,42.32346 28.86849,14.10783 0.45108,15.08076" />
    <path
       id="wall-fox"
       style="display:inline;opacity:1;fill:none;stroke:#000000;stroke-width:2.25"
       d="m 218.94532,636.99461 -1.80428,-81.24158 h -12.17889 l 1.35321,-84.64691 15.33638,-22.86439 h 11.72782 v 0" />
    <path
       id="wall-slab"
       style="display:inline;opacity:1;fill:none;stroke:#000000;stroke-width:2.25"
       d="m 247.36274,278.46143 -0.45107,-12.64839 215.16045,-0.48647 V 277.002" />
    <path
       id="wall-mezzanine"
       style="display:inline;opacity:1;fill:none;stroke:#000000;stroke-width:2.25"
       d="m 40.321563,214.73301 c 1.052497,-10.05384 2.104994,-20.1077 3.157491,-30.16153 -1.997065,-4.37998 -4.689765,-8.63183 -6.250436,-13.09219 1.32129,-8.2179 2.168875,-16.64457 3.78611,-24.73205 2.9133,-4.7528 6.522974,-9.14449 9.006393,-14.1202 2.425562,-9.75185 5.372862,-19.41446 7.473116,-29.22195 C 57.934645,91.055947 58.375043,78.70682 58.81544,66.357681 56.409727,66.195521 54.004025,66.03336 51.598313,65.8712" />
    <path
       id="wall-back-wall"
       style="display:inline;opacity:1;fill:none;stroke:#000000;stroke-width:2.25"
       d="m 722.79064,69.424117 74.42656,-1.2e-5 16.68958,19.606601 35.18347,-19.0464 57.28591,-0.560189 44.20487,9.523205 15.36326,-7.806674 c 0,0 66.66401,-2.276709 74.39971,-2.276709 14.8853,0 87.0565,-0.5602 87.0565,-0.5602 l 23.4557,26.889029 c 1.4996,60.542032 -0.4511,183.181512 -0.4511,183.181512 l -52.7775,6.5514 -31.5726,-4.31065 -20.2982,15.12507 0.9021,21.84734 86.1545,2.80095 29.3195,50.97711 0.9021,92.99122 -7.2566,21.85004 1.8437,84.5857 9.9236,24.64828 -3.1574,14.56489 -1.3532,23.52791 -19.8472,0.56018 -36.0855,-12.88432 -50.0689,-17.36585 -41.9495,-22.40751 h -44.65589 l 0.45107,55.45862" />
    <path
       id="wall-island"
       style="display:inline;opacity:1;fill:none;stroke:#000000;stroke-width:2.25"
       d="m 783.23402,318.70783 c 0,0 1.80429,10.64356 22.55351,18.48621 4.5476,0.24554 35.24415,2.05842 35.24415,2.05842 l 6.77398,11.39064 c 0,0 30.40301,9.95392 33.31057,11.75939 7.21713,4.4815 19.39603,33.61129 19.39603,33.61129 0,0 21.20028,5.60188 25.71098,8.963 4.5107,3.36113 32.32004,41.05971 55.93269,25.20848 16.6896,-11.20377 16.23853,-29.12979 15.33639,-40.33354 -0.33973,-4.21912 -3.64175,-18.56827 -4.39686,-28.58285 -1.25007,-16.57896 0.33723,-26.87579 0.33723,-26.87579 0,0 -23.84681,-39.09864 -46.26227,-50.99232 -34.04844,-18.06619 -75.04551,-25.30915 -75.04551,-25.30915 0,0 -28.39379,7.76694 -34.31142,7.95854 -13.36242,1.03719 -30.22169,10.08337 -40.5963,21.84733 -13.08103,14.0047 -13.98317,30.81035 -13.98317,30.81035 z" />
    <path
       id="wall-red"
       style="display:inline;opacity:1;fill:none;stroke:#000000;stroke-width:2.25"
       d="m 856.05982,635.10551 0.45106,-12.71402 -67.6605,0.52974 -0.90214,-59.86189 -6.76606,0.52975 v -31.78507 l 6.76606,-0.52976 -1.27589,-103.18043 -13.98317,0.52974 -0.90214,0.52975" />
    <path
       id="wall-boulders"
       style="display:inline;opacity:1;fill:none;stroke:#000000;stroke-width:2.25"
       d="m 682.19431,130.0861 h -9.92354 l -1.3532,-25.78326 -14.43425,-18.486101 h -46.00915 c 0,0 -0.0478,20.049861 -4.05963,29.675061 -4.01181,9.6252 -12.026,16.21496 -20.29816,17.51316 0,0 -9.53773,-10.21995 -11.27675,-17.99963 -1.73901,-7.77968 -0.39116,-17.883194 -9.02139,-22.864404 -8.63024,-4.981201 -17.59174,-2.432378 -17.59174,-2.432378 0,0 -17.30446,2.586393 -23.90672,5.83773 -6.60226,3.251326 -10.3136,9.037132 -15.33639,12.161902 -5.02279,3.12478 -14.43424,6.81066 -14.43424,6.81066 -26.88173,-11.02781 -69.53976,-10.63194 -93.82258,-0.48646 L 355.61956,79.492555 301.63834,79.280386 266.30768,103.81638 c -30.02736,0.0679 -101.94086,4.38249 -101.94086,4.38249 l -49.19471,51.70586 5.43994,76.23324 68.56264,0.97296 v 10.70248" />
  </g>
  <g
     inkscape:groupmode="layer"
     id="clock-layer"
     inkscape:label="Clock"
     style="display:none">
    <circle
       id="clock-face-background"
       style="fill:#ffffff;fill-opacity:1;stroke:none;"
       cx="600.40308"
       cy="346.76486"
       r="98.142815" />
    <path
       id="clock-face"
       style="display:inline;fill:#000000;fill-opacity:1;stroke-width:0.23962912"
       d="m 593.85788,444.01297 c -18.66708,-1.68905 -33.60138,-6.81702 -48.18307,-16.54453 -21.51773,-14.3546 -36.78368,-37.64776 -41.52516,-63.36011 -1.17649,-6.37991 -1.44981,-9.65016 -1.46058,-17.47574 -0.0102,-7.4297 0.14835,-9.70645 1.08494,-15.57589 4.25561,-26.66918 19.3342,-50.46369 41.43916,-65.39231 4.37899,-2.95738 6.81932,-4.3909 11.26521,-6.61756 10.75976,-5.38885 21.50719,-8.55555 33.90487,-9.98995 3.51601,-0.4068 16.1869,-0.40955 19.6496,-0.004 17.02494,1.99267 31.29358,7.15591 44.94807,16.26488 21.97276,14.65817 37.48096,38.75164 41.77436,64.9005 1.0528,6.41178 1.2159,8.56076 1.2187,16.05515 0,7.29086 -0.1625,9.62922 -1.0922,15.45607 -4.2551,26.6656 -19.3372,50.4657 -41.43923,65.39233 -4.37899,2.95736 -6.81931,4.3909 -11.26521,6.61756 -10.46283,5.24013 -20.7304,8.32976 -32.70672,9.8418 -2.75517,0.34783 -15.17603,0.65253 -17.61274,0.43205 z m 3.36867,-0.70674 c 0.17169,-0.20688 0.87351,-1.58175 1.55958,-3.05527 0.9297,-1.9968 1.17807,-2.74793 0.9752,-2.94931 -0.34805,-0.34552 -8.22265,-0.64748 -8.42318,-0.32301 -0.31536,0.51026 -0.69333,5.74319 -0.4336,6.00294 0.14212,0.1421 1.43087,0.34233 2.8639,0.44492 1.43305,0.10258 2.72712,0.20213 2.87573,0.2212 0.1486,0.0191 0.41067,-0.13458 0.58237,-0.34147 z m 11.20365,-0.0108 c 0.79401,-0.0815 1.32297,-0.26104 1.40596,-0.47734 0.16396,-0.42729 -0.36496,-5.66179 -0.59535,-5.8918 -0.21383,-0.21347 -8.0699,0.0612 -8.44884,0.29541 -0.20385,0.12597 0.10468,1.02355 1.07707,3.13347 0.74949,1.62632 1.47316,3.02518 1.60815,3.10861 0.24742,0.15292 2.60131,0.0729 4.95301,-0.16835 z m -18.59949,-1.49634 c 0.0974,-0.5745 0.2076,-1.97024 0.24496,-3.10164 l 0.068,-2.0571 -0.83871,-0.17812 c -2.95016,-0.62651 -7.27445,-1.17657 -7.41842,-0.94363 -0.35377,0.57241 -1.27463,5.79686 -1.05965,6.01184 0.29093,0.29093 6.91161,1.41542 7.99347,1.35765 0.78712,-0.042 0.84318,-0.10244 1.01039,-1.08902 z m 27.15137,0.41038 c 1.44976,-0.25875 2.73096,-0.56496 2.8471,-0.68049 0.24501,-0.24368 -0.75596,-5.34898 -1.15602,-5.89608 -0.23416,-0.32024 -0.57574,-0.3075 -3.01442,0.11237 -1.51271,0.26045 -3.26884,0.54288 -3.90254,0.62762 -0.72622,0.0971 -1.20629,0.29503 -1.29849,0.5353 -0.16459,0.42893 0.31315,5.45882 0.55577,5.85139 0.18898,0.30579 2.22347,0.11827 5.9686,-0.55011 z m -37.29633,-1.34281 c 0.37891,-0.7142 1.28485,-5.61574 1.073,-5.80536 -0.11016,-0.0986 -0.95512,-0.35988 -1.87769,-0.58061 -0.92258,-0.22075 -2.61917,-0.67439 -3.77022,-1.00811 -1.15104,-0.33371 -2.201,-0.53987 -2.33324,-0.45815 -0.13224,0.0817 -0.63467,1.40032 -1.1165,2.93022 -0.81185,2.57771 -0.84621,2.80346 -0.46875,3.07948 0.22402,0.1638 1.6143,0.62696 3.0895,1.02923 1.47519,0.40227 3.05959,0.83447 3.52087,0.96042 1.2595,0.34391 1.63822,0.31433 1.88303,-0.14712 z m 44.84465,-0.29795 c 3.99579,-1.03482 4.86509,-1.32543 5.09127,-1.70202 0.12774,-0.21268 -0.14251,-1.34994 -0.73478,-3.09215 -0.86159,-2.53438 -0.98274,-2.75138 -1.50842,-2.70158 -0.78145,0.074 -7.37262,1.87443 -7.56444,2.06623 -0.13258,0.1326 0.75226,4.99776 1.06349,5.84729 0.15693,0.4284 0.56646,0.38156 3.65288,-0.41777 z m -54.69776,-2.21816 c 0.12979,-0.16473 0.62647,-1.47679 1.10372,-2.91565 0.93048,-2.80527 0.90872,-3.07443 -0.27243,-3.37048 -0.35703,-0.0895 -1.99115,-0.69522 -3.63137,-1.34606 -2.39889,-0.95188 -3.03977,-1.12386 -3.27644,-0.87922 -0.16182,0.16727 -0.7906,1.42969 -1.39729,2.80539 -0.89272,2.02426 -1.04476,2.55875 -0.79726,2.80272 0.1682,0.16579 1.59982,0.79903 3.18137,1.40717 1.58155,0.60814 3.25296,1.25541 3.71425,1.43835 1.05563,0.41866 1.09,0.4201 1.37545,0.0578 z m 65.60089,-1.29991 c 1.84513,-0.71515 3.48434,-1.42962 3.64267,-1.58768 0.22401,-0.22366 0.0322,-0.86195 -0.86468,-2.87742 -0.63391,-1.42451 -1.24948,-2.68695 -1.36795,-2.80542 -0.12746,-0.12746 -1.58448,0.31593 -3.56846,1.0859 -1.84418,0.71572 -3.47464,1.3042 -3.62325,1.30772 -0.78095,0.0186 -0.77595,0.65509 0.0252,3.20691 0.44551,1.41915 0.94075,2.73779 1.10053,2.93031 0.34546,0.41623 0.29537,0.4298 4.65598,-1.26032 z m -26.03582,-0.93258 c 22.42215,-2.2111 43.68918,-13.11698 58.53691,-30.01815 11.26046,-12.81779 18.50536,-28.07253 21.40706,-45.0749 1.4859,-8.70615 1.4805,-20.8421 -0.013,-29.46925 -6.6388,-38.3454 -35.99697,-67.62778 -74.36857,-74.17665 -9.03632,-1.54223 -20.80886,-1.49507 -30.06998,0.12045 -22.26353,3.88368 -43.12346,16.58202 -56.40876,34.33846 -12.13245,16.2156 -18.30572,34.69404 -18.28043,54.71881 0.0208,16.45589 4.22251,31.78798 12.56372,45.84492 17.93771,30.22934 51.52581,47.17835 86.63324,43.71631 z m -14.58132,-3.85911 c 0,-0.0885 0.18871,-0.36944 0.41935,-0.62437 0.38058,-0.42066 0.41936,-1.15689 0.41936,-7.96148 0,-6.8047 -0.0388,-7.54083 -0.41936,-7.96125 -0.23064,-0.25479 -0.41935,-0.53564 -0.41935,-0.62412 0,-0.0885 0.647,-0.16085 1.43778,-0.16085 1.45796,0 1.72779,0.17988 1.07833,0.71889 -0.3059,0.25387 -0.35944,1.44945 -0.35944,8.02758 0,6.57811 0.0535,7.77369 0.35944,8.02756 0.64946,0.53901 0.37963,0.71889 -1.07833,0.71889 -0.79078,0 -1.43778,-0.0724 -1.43778,-0.16085 z m 3.83406,-0.0495 c 0,-0.11569 0.15367,-0.5781 0.34146,-1.02756 0.18779,-0.44947 0.89749,-4.15593 1.57711,-8.23657 0.67962,-4.08065 1.32401,-7.51109 1.43197,-7.6232 0.2756,-0.28619 0.30508,-0.15625 1.8128,7.9918 0.74382,4.01976 1.50386,7.62178 1.68897,8.00448 0.49911,1.0318 0.44465,1.10141 -0.86157,1.10141 -1.24191,0 -1.39909,-0.164 -0.90912,-0.94855 0.23558,-0.37722 0.10248,-1.44773 -0.71973,-5.78865 -0.55482,-2.92919 -1.06816,-5.38522 -1.14077,-5.45783 -0.3018,-0.3018 -0.5362,0.71397 -1.29222,5.60012 -0.73741,4.76579 -0.76788,5.1846 -0.41623,5.72128 0.20869,0.31849 0.31315,0.64535 0.23215,0.72635 -0.2284,0.22841 -1.74482,0.17357 -1.74482,-0.0631 z m -35.94436,-8.20526 c -1.13269,-0.6833 -1.11791,-0.65332 -0.52656,-1.06753 0.28757,-0.20141 0.64595,-0.59623 0.79641,-0.87737 0.24964,-0.46645 3.56422,-9.89857 3.56422,-10.14249 0,-0.45617 -0.78608,0.36902 -3.25628,3.41833 -3.64236,4.49624 -3.9326,4.92501 -3.9326,5.8094 0,0.40238 -0.0593,0.73161 -0.13171,0.73161 -0.20502,0 -1.54569,-0.71925 -1.54569,-0.82924 0,-0.0539 0.56678,-0.67119 1.25951,-1.3717 0.69273,-0.70052 3.11515,-3.54876 5.38316,-6.32941 4.1935,-5.14138 4.85953,-5.88192 4.85953,-5.40323 0,0.14476 -1.14591,3.56893 -2.54645,7.60926 -1.40056,4.04033 -2.57254,7.67755 -2.60441,8.08274 -0.0736,0.93593 -0.2831,0.99463 -1.31913,0.36963 z m 77.08566,-2.42759 c -0.077,-0.56014 -1.33178,-4.19512 -2.78832,-8.07774 -1.45653,-3.88264 -2.64823,-7.15778 -2.64823,-7.27813 0,-0.4142 0.81096,0.45594 5.9264,6.35896 2.82159,3.256 5.33826,5.98606 5.5926,6.0668 0.70192,0.22276 0.56007,0.53418 -0.48653,1.06812 -1.21695,0.62083 -1.52179,0.61702 -1.32072,-0.0165 0.18382,-0.57917 -0.0679,-0.92103 -4.26262,-5.78963 -2.53489,-2.94208 -3.29247,-3.66266 -3.29247,-3.13167 0,0.0898 0.82189,2.29411 1.8264,4.89854 1.71671,4.45088 2.25636,5.49012 3.01265,5.80151 0.2249,0.0926 0.15378,0.26807 -0.25275,0.62352 -0.84388,0.73789 -1.14977,0.61526 -1.30641,-0.52376 z m -84.45425,-1.77923 c -1.17074,-0.68176 -1.2602,-0.92377 -0.4195,-1.13478 0.70477,-0.17688 0.78596,-0.30051 4.89062,-7.4474 2.31945,-4.03853 3.15387,-5.70148 3.12624,-6.23037 -0.0207,-0.39677 -0.0268,-0.80851 -0.0134,-0.91496 0.0133,-0.10645 0.56333,0.10922 1.22218,0.47924 1.22522,0.68816 1.56275,1.27188 0.73544,1.27188 -0.60372,0 -0.78092,0.2678 -4.79413,7.24525 -2.9613,5.14855 -3.38836,6.02221 -3.25053,6.64971 0.19535,0.88942 -0.0833,0.90457 -1.49691,0.0814 z m -3.235,-1.8927 c -0.90844,-0.5949 -1.16357,-1.06074 -0.58093,-1.06074 0.58239,0 1.30064,-1.04028 4.30169,-6.23036 3.86675,-6.68724 4.04978,-7.05592 3.86616,-7.78755 -0.1949,-0.77652 0.16027,-0.77422 1.49794,0.01 1.1095,0.65021 1.3335,1.06823 0.57241,1.06823 -0.65277,0 -1.18754,0.78856 -4.89528,7.21863 -2.55159,4.42502 -3.2643,5.85072 -3.2643,6.52989 0,1.02794 -0.24904,1.06988 -1.49769,0.25219 z m -22.09714,-21.36503 c -0.76845,-1.13088 -0.76132,-1.26233 0.0685,-1.26233 0.70306,0 1.62219,-0.70137 6.70592,-5.11708 2.32214,-2.01701 2.95225,-2.78152 2.02333,-2.45487 -4.42271,1.55515 -9.58917,3.73464 -10.13871,4.27704 -0.3672,0.36244 -0.72708,0.65898 -0.79974,0.65898 -0.0726,0 -0.30038,-0.32544 -0.50607,-0.72318 -0.41455,-0.80167 -0.38979,-0.82526 1.08056,-1.03033 0.46129,-0.0643 4.01978,-1.30372 7.90776,-2.75422 3.88798,-1.4505 7.10681,-2.60039 7.15296,-2.55534 0.19032,0.18586 -0.49603,0.82243 -6.19224,5.74321 -3.27721,2.83109 -6.02748,5.36456 -6.11171,5.62993 -0.22125,0.69709 -0.50333,0.5995 -1.19054,-0.41181 z m 141.16647,-3.04195 c -0.33278,-0.50788 -4.95788,-4.44418 -10.40516,-8.85556 -1.76757,-1.43142 -2.10093,-1.77379 -1.91154,-1.96318 0.0582,-0.0582 3.52458,1.08126 7.70313,2.53205 4.17857,1.45079 7.86202,2.63779 8.18545,2.63779 0.7115,0 0.73961,0.3476 0.11142,1.37788 -0.54013,0.8859 -0.86403,0.983 -1.07383,0.32193 -0.16731,-0.52712 -0.71276,-0.76263 -6.21331,-2.6826 -4.04311,-1.41124 -4.80761,-1.60736 -4.65699,-1.19457 0.0962,0.26369 6.66265,5.59756 7.9117,6.42662 0.58289,0.38689 1.05074,0.53242 1.37787,0.42862 0.56429,-0.17911 0.61932,0.0596 0.21718,0.94213 -0.3492,0.76645 -0.75647,0.7759 -1.24592,0.0289 z m -144.83102,-3.31251 c -0.13199,-0.16473 -0.46795,-0.75208 -0.74659,-1.3052 l -0.50662,-1.00565 0.89697,0.0333 c 0.74981,0.0278 1.91913,-0.5569 7.12733,-3.56399 5.02464,-2.90111 6.30518,-3.7438 6.61699,-4.35446 0.36048,-0.70597 0.41122,-0.72915 0.7499,-0.34273 0.38167,0.43546 1.13994,1.83631 1.13994,2.10594 0,0.0867 -0.26927,0.0901 -0.59838,0.008 -0.73278,-0.18393 -1.33563,0.11499 -7.78864,3.86165 -6.25255,3.63029 -5.94211,3.42048 -6.21361,4.19931 -0.26069,0.7478 -0.33716,0.78894 -0.67729,0.36438 z m -1.91608,-3.3548 c -0.3562,-0.44637 -1.01781,-1.79772 -1.01781,-2.07886 0,-0.14394 0.29169,-0.18721 0.70494,-0.10456 0.5966,0.11932 1.64125,-0.39907 6.79754,-3.37318 6.19944,-3.5758 7.11489,-4.19555 7.11489,-4.81669 0,-0.65004 0.4556,-0.35603 1.06823,0.68936 0.80605,1.37541 0.7804,1.59354 -0.16962,1.44248 -0.67207,-0.10688 -1.6156,0.35677 -6.88547,3.38345 -3.35867,1.929 -6.29712,3.67964 -6.52989,3.89029 -0.23277,0.21065 -0.42322,0.58196 -0.42322,0.82512 0,0.50975 -0.31268,0.57734 -0.65959,0.14259 z m 151.05269,-0.28191 c -0.15975,-0.63654 -1.14883,-1.26937 -9.18628,-5.87769 -3.27453,-1.87749 -4.00298,-2.2067 -4.61287,-2.08472 -0.89803,0.17961 -0.91796,-0.0696 -0.11507,-1.43961 0.69043,-1.17813 0.9543,-1.28636 1.15796,-0.47497 0.17367,0.69195 0.55716,0.94377 7.51207,4.93281 4.76142,2.73094 5.66965,3.17087 6.29025,3.04675 0.8842,-0.17685 0.9191,0.0879 0.1822,1.38192 -0.6554,1.15101 -1.0294,1.30796 -1.22826,0.51551 z m -153.38546,-3.72712 c -0.78584,-1.24487 -0.76044,-1.4339 0.18793,-1.39824 0.60797,0.0229 2.11254,-0.73052 6.52989,-3.26966 6.48977,-3.73042 7.29748,-4.27655 7.29748,-4.93421 0,-0.7611 0.41802,-0.5371 1.06823,0.57241 0.78392,1.33766 0.78622,1.69282 0.01,1.49793 -0.73163,-0.18362 -1.10031,0 -7.78755,3.86616 -5.19009,3.00105 -6.23036,3.71931 -6.23036,4.3017 0,0.59779 -0.47306,0.31796 -1.07532,-0.63609 z m -7.55132,-32.07792 c 0,-1.49288 0.17732,-1.76802 0.71889,-1.11547 0.46268,0.5575 15.22367,0.53561 15.84146,-0.0235 0.23272,-0.21059 0.53775,-0.31206 0.67785,-0.22548 0.26868,0.16605 0.35915,2.34113 0.10783,2.59246 -0.0808,0.0808 -0.43687,-0.0675 -0.79128,-0.32951 -0.61571,-0.45521 -0.9759,-0.47329 -8.09551,-0.40649 -6.93556,0.0651 -7.486,0.10149 -7.95518,0.52639 l -0.50406,0.45651 z m 154.24126,0.76162 c -0.20819,-0.20819 -0.20774,-2.34828 0,-2.55656 0.0882,-0.0882 0.36912,0.0287 0.62437,0.25959 0.4214,0.38124 1.15393,0.41988 7.96211,0.41988 6.8047,0 7.5408,-0.0388 7.9612,-0.41936 0.2548,-0.23064 0.5357,-0.41934 0.6241,-0.41934 0.088,0 0.1609,0.64699 0.1609,1.43777 0,1.45796 -0.1799,1.72779 -0.7189,1.07833 -0.2537,-0.30572 -1.4375,-0.35944 -7.92,-0.35944 -6.45532,0 -7.67668,0.055 -7.98113,0.35944 -0.40403,0.40405 -0.48589,0.42697 -0.71317,0.19969 z m -137.83713,-3.46788 c -0.96684,-0.57312 -6.91271,-2.60265 -7.62495,-2.60265 -0.94506,0 -7.18164,1.90572 -7.87087,2.40511 -0.3571,0.25875 -0.70756,0.47044 -0.77879,0.47044 -0.0712,0 -0.12952,-0.647 -0.12952,-1.43777 0,-1.32403 0.23312,-1.79026 0.59907,-1.19813 0.0815,0.13179 0.43271,0.23962 0.78057,0.23962 0.85743,0 4.61109,-1.16061 4.61109,-1.42572 0,-0.11669 -1.03509,-0.55699 -2.30019,-0.97847 -1.89798,-0.63232 -2.40277,-0.71957 -2.88682,-0.49902 -0.81834,0.37285 -0.80372,0.38761 -0.80372,-0.81105 0,-1.20315 0.10808,-1.28409 0.82326,-0.61661 0.27209,0.25395 1.93715,0.95499 3.70014,1.55787 l 3.20543,1.09616 4.10326,-1.21494 c 2.25678,-0.66821 4.34892,-1.37374 4.64918,-1.56782 0.76871,-0.4969 1.01166,-0.23779 1.01166,1.07899 0,1.38271 -0.12912,1.54703 -0.84635,1.0771 -0.45125,-0.29568 -0.74097,-0.31304 -1.59003,-0.0954 -2.9207,0.74882 -4.51938,1.301 -4.44167,1.53414 0.0475,0.1425 1.25243,0.63114 2.67762,1.08588 2.4613,0.78533 2.62466,0.80761 3.25773,0.44427 0.79105,-0.454 0.94391,-0.35102 0.93903,0.63257 -0.006,1.13747 -0.24786,1.32171 -1.08513,0.82539 z m 137.83713,-0.3661 c -0.25166,-0.25166 -0.18622,-2.19189 0.0795,-2.3561 0.13157,-0.0813 0.47906,0.0202 0.77221,0.2255 0.773,0.54141 14.94377,0.56088 15.65687,0.0215 0.7342,-0.55526 0.8246,-0.45095 0.8246,0.9509 0,1.40186 -0.09,1.50617 -0.8246,0.9509 -0.6903,-0.52211 -14.91378,-0.52211 -15.60407,0 -0.52791,0.39931 -0.67805,0.43371 -0.90447,0.20731 z m 0,-3.59391 c -0.26115,-0.26116 -0.18236,-2.43477 0.0944,-2.60584 0.14011,-0.0866 0.44513,0.0149 0.67785,0.22549 0.6178,0.55908 15.37883,0.58097 15.84153,0.0235 0.5404,-0.65109 0.7189,-0.37845 0.7189,1.09789 v 1.45731 l -0.8281,-0.51181 c -0.8057,-0.4979 -1.0265,-0.50984 -8.1227,-0.4389 -6.55175,0.0655 -7.34175,0.11569 -7.75809,0.4928 -0.25496,0.23092 -0.53568,0.34774 -0.62384,0.2596 z M 538.56017,314.82183 c -0.40207,-0.88315 -4.7376,-5.86015 -5.40146,-6.20062 -0.92457,-0.4742 -7.06801,-1.80748 -8.00744,-1.73784 -1.05196,0.078 -1.06798,-0.0867 -0.16015,-1.6467 0.58747,-1.00951 1.05172,-1.31679 1.05172,-0.69612 0,0.17726 0.18871,0.49305 0.41935,0.70173 0.46245,0.41843 4.5435,1.52149 4.7745,1.29049 0.17856,-0.17855 -0.70568,-1.33979 -2.18957,-2.87546 -0.91478,-0.9467 -1.22794,-1.13311 -1.70314,-1.01385 -0.71269,0.17888 -0.76395,-0.2238 -0.1629,-1.27983 0.5391,-0.94719 0.85236,-0.93281 1.20974,0.0555 0.15818,0.43743 1.2581,1.88901 2.44427,3.22571 1.6924,1.90719 2.35016,2.48199 3.05544,2.67014 4.06105,1.08335 7.73865,1.86701 8.27779,1.76395 0.80841,-0.15454 0.8333,0.19268 0.10545,1.47085 -0.64829,1.13843 -0.94467,1.27018 -1.25681,0.55868 -0.25585,-0.58316 -1.45544,-1.05924 -4.25072,-1.68698 -1.24697,-0.28002 -1.6175,-0.29546 -1.6175,-0.0674 0,0.16274 0.8181,1.17648 1.81798,2.25276 1.59062,1.71216 1.92028,1.95689 2.63592,1.95689 0.95958,0 0.97404,0.0503 0.31914,1.10996 -0.60532,0.97943 -0.96532,1.01857 -1.36161,0.14809 z m 122.27956,-0.17972 c -0.20074,-0.32949 -0.52672,-0.86486 -0.72441,-1.18971 -0.54102,-0.88901 -0.44587,-1.05229 0.53917,-0.92546 0.8028,0.10338 1.39678,-0.17104 5.57137,-2.57406 7.25164,-4.17426 8.00758,-4.66312 8.15116,-5.27133 0.212,-0.89807 0.61992,-0.78769 1.28535,0.34779 0.79681,1.35964 0.80321,1.68114 0.0295,1.48697 -0.73277,-0.18391 -1.33561,0.11498 -7.78863,3.86165 -6.25254,3.63029 -5.94211,3.42048 -6.21361,4.1993 -0.28448,0.81608 -0.38746,0.82394 -0.84992,0.0648 z m -2.26466,-3.88429 c -0.77365,-1.24298 -0.75162,-1.5805 0.0894,-1.36941 0.68307,0.17143 1.20374,-0.0896 7.80099,-3.91113 5.83316,-3.37889 5.72863,-3.3072 6.09578,-4.18045 0.3182,-0.75676 0.56503,-0.64163 1.28352,0.59872 0.74995,1.29466 0.69718,1.60041 -0.25033,1.45028 -0.67191,-0.10644 -1.6338,0.36673 -7.00915,3.448 -5.13261,2.94212 -6.29368,3.70449 -6.58981,4.32677 -0.19769,0.41546 -0.4401,0.75773 -0.53872,0.76058 -0.0986,0.003 -0.49536,-0.50266 -0.88171,-1.12336 z m -97.54415,-21.69611 c 10e-4,-0.56014 -0.28998,-2.56365 -0.64712,-4.45225 l -0.64935,-3.43384 -2.75556,-2.64903 c -1.51556,-1.45697 -3.11143,-2.79773 -3.54639,-2.97946 -0.43496,-0.18176 -0.79083,-0.38529 -0.79083,-0.45231 0,-0.20069 2.22577,-1.54911 2.55703,-1.54911 0.20562,0 0.26448,0.21696 0.17881,0.65898 -0.11088,0.57204 0.10733,0.89144 1.65398,2.421 0.97995,0.9691 1.84079,1.66642 1.913,1.5496 0.15932,-0.25779 -0.44181,-3.53477 -0.81482,-4.44188 -0.14724,-0.35806 -0.47177,-0.71578 -0.72119,-0.79495 -0.66297,-0.21041 -0.55992,-0.48075 0.39891,-1.04648 1.18665,-0.70014 1.31316,-0.64414 1.16484,0.5155 -0.12464,0.97448 0.84985,6.5069 1.27393,7.23238 0.37834,0.64725 6.01372,5.85399 6.74544,6.23238 0.92269,0.47714 0.82164,0.6856 -0.70803,1.46074 -1.21322,0.61479 -1.26383,0.60228 -1.19233,-0.29465 0.0466,-0.58441 -3.39845,-4.38671 -3.97453,-4.38671 -0.41743,0 -0.41818,-0.0135 0.15551,2.77471 0.46993,2.28392 0.93101,3.21601 1.59083,3.21601 0.56636,0 0.34699,0.42492 -0.48478,0.93898 -1.15752,0.7154 -1.34989,0.64119 -1.34735,-0.51961 z m 73.38418,-1.75317 c -1.01011,-0.60541 -1.31158,-1.06248 -0.70075,-1.06248 0.59631,0 1.33524,-1.08371 4.73964,-6.95119 2.62406,-4.5226 3.41863,-6.08885 3.46361,-6.82749 0.0321,-0.52718 0.069,-0.99169 0.082,-1.03223 0.0129,-0.0406 0.56272,0.22901 1.22158,0.59906 1.2361,0.69427 1.56134,1.27188 0.71616,1.27188 -0.58153,0 -1.02343,0.67384 -5.14396,7.84412 -2.61174,4.54475 -3.04061,5.43425 -2.91734,6.05064 0.18026,0.90132 -0.1021,0.92213 -1.46099,0.10769 z m -66.07829,-2.08091 c 0.12399,-0.68494 -0.30063,-1.54369 -3.52367,-7.12622 -2.7615,-4.78312 -3.82704,-6.42515 -4.32362,-6.66278 -0.36244,-0.17345 -0.65898,-0.40705 -0.65898,-0.51914 0,-0.2324 1.99204,-1.44746 2.37307,-1.44746 0.14806,0 0.19485,0.28011 0.11416,0.68355 -0.16619,0.83093 0.009,1.18654 3.91737,7.94309 3.23197,5.5875 3.51306,5.99073 4.17622,5.99073 0.81538,0 0.45285,0.63688 -0.72855,1.27987 -0.64386,0.35044 -1.24183,0.63716 -1.32881,0.63716 -0.087,0 -0.0947,-0.35045 -0.0172,-0.7788 z m 22.40588,-7.44049 c 0,-0.17133 0.10205,-0.41395 0.22678,-0.53916 0.3352,-0.33649 2.64877,-7.0114 2.64877,-7.64197 0,-0.93103 -1.91111,-7.17054 -2.40511,-7.85232 -0.72203,-0.9965 -0.59967,-1.14795 0.9274,-1.14795 1.60993,0 1.87328,0.1494 1.32718,0.75285 -0.43807,0.48406 -0.3852,0.95693 0.40283,3.60298 0.26778,0.8992 0.57922,1.63491 0.69205,1.63491 0.17981,0 1.14776,-2.46793 1.57886,-4.02552 0.091,-0.32884 0.005,-0.7766 -0.21437,-1.11077 -0.46861,-0.71517 -0.31114,-0.85445 0.96609,-0.85445 1.16219,0 1.25818,0.20141 0.55149,1.15724 -0.59527,0.80518 -2.38864,5.81963 -2.38864,6.67895 0,0.96856 2.13108,8.02447 2.63702,8.73105 0.24884,0.34753 0.38635,0.69799 0.30556,0.77879 -0.20035,0.20035 -2.94258,0.18734 -2.94258,-0.014 0,-0.0885 0.16777,-0.34623 0.37281,-0.57281 0.33747,-0.37289 0.33592,-0.55642 -0.0163,-1.93589 -0.74889,-2.93186 -1.11094,-4.04008 -1.3199,-4.04008 -0.11583,0 -0.59797,1.19819 -1.07139,2.66264 -0.79973,2.47383 -0.83456,2.7026 -0.49125,3.22656 0.51961,0.79304 0.49594,0.82043 -0.70883,0.82043 -0.72503,0 -1.07833,-0.10206 -1.07833,-0.31153 z m 8.067,0.15126 c -0.0882,-0.0882 -0.005,-0.33148 0.18401,-0.54071 0.424,-0.46852 2.77194,-7.08144 2.77194,-7.8071 0,-0.91939 -1.91563,-7.16136 -2.40511,-7.8369 -0.72203,-0.9965 -0.59969,-1.14795 0.92739,-1.14795 1.60993,0 1.87329,0.1494 1.32717,0.75285 -0.43807,0.48406 -0.3852,0.95693 0.40283,3.60298 0.26779,0.8992 0.57572,1.63491 0.68429,1.63491 0.17257,0 1.13545,-2.44889 1.58277,-4.02552 0.0945,-0.33301 0.0112,-0.77236 -0.21052,-1.11077 -0.20177,-0.30794 -0.30057,-0.62615 -0.21957,-0.70717 0.24027,-0.24027 2.22408,-0.16738 2.22408,0.0817 0,0.12593 -0.26193,0.61493 -0.58205,1.08667 -0.64639,0.95251 -2.2935,5.66936 -2.2935,6.56793 0,0.77838 2.109,7.91873 2.53494,8.58247 0.56839,0.88569 0.41755,1.02686 -1.09717,1.02686 -1.53067,0 -1.65279,-0.0841 -1.06497,-0.73366 0.33748,-0.3729 0.33591,-0.55642 -0.0165,-1.93591 -0.74888,-2.93183 -1.11093,-4.04005 -1.31988,-4.04005 -0.11584,0 -0.59797,1.19818 -1.07139,2.66263 -0.79974,2.47383 -0.83457,2.7026 -0.49127,3.22656 0.20323,0.31017 0.36951,0.62164 0.36951,0.69218 0,0.18675 -2.04761,0.15744 -2.23705,-0.032 z m 8.22779,-0.05 c 0,-0.11565 0.16175,-0.34453 0.35944,-0.50859 0.30573,-0.25374 0.35945,-1.43751 0.35945,-7.91999 0,-6.45532 -0.055,-7.67669 -0.35945,-7.98112 -0.66233,-0.66233 -0.40216,-0.87294 1.07833,-0.87294 1.4805,0 1.74066,0.21061 1.07833,0.87294 -0.30443,0.30443 -0.35944,1.5258 -0.35944,7.98112 0,6.48248 0.0537,7.66625 0.35944,7.91999 0.64947,0.539 0.37963,0.71888 -1.07833,0.71888 -0.79077,0 -1.43777,-0.0946 -1.43777,-0.21029 z m -45.3621,154.23191 c 0.65876,-1.48271 1.15788,-2.80366 1.10917,-2.93547 -0.12257,-0.33162 -7.49193,-4.04878 -7.67127,-3.86945 -0.18764,0.18765 -0.77582,6.44619 -0.62895,6.6923 0.17184,0.28792 5.176,2.78213 5.60985,2.7961 0.26212,0.008 0.76247,-0.84072 1.5812,-2.68348 z m 81.78972,1.37586 2.63192,-1.31997 -0.004,-1.13624 c -0.005,-1.4191 -0.43918,-5.61334 -0.59719,-5.77135 -0.1122,-0.11218 -7.20712,3.42735 -7.63108,3.80701 -0.28711,0.25711 2.23507,5.74051 2.64043,5.74051 0.18048,0 1.51251,-0.59398 2.96008,-1.31996 z m -91.51891,-6.51681 c 1.43688,-1.01534 2.61251,-1.93582 2.61251,-2.04554 0,-0.1097 -0.72787,-0.65206 -1.61749,-1.20523 -0.88963,-0.55317 -2.45738,-1.57368 -3.48388,-2.2678 -1.02652,-0.69412 -1.9514,-1.26205 -2.0553,-1.26205 -0.36464,0 -3.67228,4.80728 -3.54172,5.14749 0.15933,0.41523 4.69348,3.47916 5.14859,3.47916 0.17863,0 1.50041,-0.83071 2.93729,-1.84603 z m 102.37192,0.27688 c 1.29058,-0.86304 2.40262,-1.71537 2.47119,-1.89407 0.13235,-0.34487 -2.92997,-4.80235 -3.45143,-5.02385 -0.1691,-0.0718 -1.24743,0.49806 -2.39629,1.26642 -1.14885,0.76837 -2.70887,1.78942 -3.46669,2.26903 -0.75783,0.47959 -1.37787,0.97249 -1.37787,1.09535 0,0.31877 5.04211,3.85627 5.49648,3.85627 0.20794,0 1.43402,-0.70611 2.72461,-1.56915 z m -109.60455,-5.07635 c 0.93376,-1.28269 1.69775,-2.4467 1.69775,-2.58666 0,-0.13999 -0.56016,-0.68104 -1.2448,-1.20236 -0.68464,-0.52132 -2.11041,-1.66769 -3.16838,-2.54749 -1.19824,-0.99645 -2.03949,-1.53475 -2.231,-1.42758 -0.53406,0.29888 -3.8995,4.19363 -3.8995,4.5128 0,0.27724 2.00731,2.06583 5.15203,4.59067 0.65898,0.52908 1.37769,0.9689 1.59715,0.97738 0.23795,0.009 1.08426,-0.92589 2.09675,-2.31676 z m 115.31709,0.98029 c 2.58746,-1.98513 4.75794,-3.92084 4.75395,-4.23974 -0.006,-0.4756 -3.66059,-4.35297 -4.10294,-4.35297 -0.49738,0 -6.43726,4.65934 -6.43726,5.0495 0,0.14865 0.34189,0.74471 0.75972,1.32462 2.11849,2.94016 2.63704,3.57048 2.93734,3.57048 0.17992,0 1.12004,-0.60834 2.08919,-1.35189 z m -122.96487,-7.16303 c 0.98847,-1.12283 1.82877,-2.18317 1.86733,-2.35633 0.0814,-0.36559 -5.37237,-5.9028 -5.81386,-5.9028 -0.4872,0 -4.44049,3.64848 -4.44049,4.0981 0,0.53363 5.65986,6.2065 6.19001,6.20425 0.21988,-0.002 1.20854,-0.92039 2.19701,-2.04322 z m 132.01608,-0.85019 c 1.5923,-1.59232 2.89433,-3.07502 2.89339,-3.29489 -0.002,-0.40605 -3.82268,-3.93589 -4.39953,-4.06436 -0.36559,-0.0814 -5.9028,5.37237 -5.9028,5.81388 0,0.48719 3.64847,4.44047 4.0981,4.44047 0.22865,0 1.71852,-1.30278 3.31084,-2.8951 z m -138.96533,-6.1416 c 1.12027,-1.01248 2.03685,-2.02884 2.03685,-2.25858 0,-0.5011 -4.6608,-6.43726 -5.05424,-6.43726 -0.4495,0 -4.76449,3.23961 -4.84071,3.63432 -0.11671,0.60444 4.94618,6.9133 5.54198,6.90586 0.1536,-0.002 1.19586,-0.83186 2.31612,-1.84434 z m 144.31493,0.35015 c 2.22622,-2.57088 4.01552,-4.93196 4.01552,-5.29861 0,-0.36602 -4.45668,-3.74738 -4.93909,-3.74738 -0.1511,0 -0.87092,0.78179 -1.5996,1.7373 -0.7287,0.95553 -1.86524,2.38259 -2.52567,3.17126 -0.73048,0.8723 -1.13402,1.55321 -1.03034,1.73849 0.28849,0.51551 4.18811,3.89662 4.49418,3.89662 0.15846,0 0.87172,-0.67396 1.585,-1.49768 z m -150.44053,-8.02758 c 1.24355,-0.88962 2.31831,-1.75203 2.38836,-1.9165 0.13756,-0.32294 -4.29834,-7.24931 -4.64272,-7.24931 -0.30859,0 -3.84112,5.05557 -3.84112,5.49722 0,0.61972 3.18399,5.28609 3.60684,5.28609 0.12521,0 1.2451,-0.72787 2.48864,-1.6175 z m 157.15185,-0.88847 c 0.8896,-1.31098 1.6175,-2.53406 1.6175,-2.71795 0,-0.40418 -3.6087,-5.55939 -3.8916,-5.55939 -0.1097,0 -0.652,0.72787 -1.2052,1.6175 -0.5532,0.88962 -1.5788,2.46486 -2.27915,3.50053 -0.70036,1.03566 -1.24132,1.97749 -1.20213,2.09297 0.13675,0.40297 4.62718,3.5623 4.98368,3.50635 0.1976,-0.031 1.0873,-1.12903 1.9769,-2.44001 z m 6.2209,-10.79345 c 0.7526,-1.44974 1.3726,-2.80846 1.3778,-3.01936 0.01,-0.26114 -0.8504,-0.76552 -2.6863,-1.58119 -1.4827,-0.65877 -2.8037,-1.1579 -2.9355,-1.10917 -0.3389,0.12524 -4.0467,7.49397 -3.8632,7.67748 0.1503,0.15025 5.6919,0.75726 6.3793,0.69876 0.2007,-0.0171 0.9641,-1.19524 1.7279,-2.66652 z m -168.28763,2.26991 c 1.24241,-0.13086 2.3117,-0.29067 2.37618,-0.35515 0.1122,-0.1122 -3.42734,-7.20712 -3.80701,-7.63108 -0.2571,-0.28709 -5.7405,2.23508 -5.7405,2.64044 0,0.18047 0.59398,1.5125 1.31996,2.96007 l 1.31997,2.63192 1.13623,-0.004 c 0.62493,-0.002 2.15276,-0.1112 3.39517,-0.24205 z m -4.29578,-7.90958 c 0.98847,-0.43476 1.92787,-0.90729 2.08756,-1.05002 0.22358,-0.19985 -0.009,-1.031 -1.01199,-3.61435 -0.71629,-1.84515 -1.30524,-3.4764 -1.30877,-3.62501 -0.0186,-0.78251 -0.65551,-0.77581 -3.23529,0.0341 -1.43478,0.45043 -2.75995,0.97021 -2.94482,1.15509 -0.28841,0.2884 -0.14273,0.84228 1.02632,3.90208 0.74934,1.96129 1.51583,3.80892 1.7033,4.10585 0.38284,0.60635 0.0613,0.68559 3.68369,-0.90772 z m 174.77931,0.907 c 0.1873,-0.29654 0.9535,-2.14384 1.7029,-4.10513 1.1256,-2.946 1.3069,-3.61785 1.043,-3.86438 -0.1757,-0.16412 -1.4967,-0.68736 -2.9356,-1.16276 -2.5959,-0.85765 -3.242,-0.87036 -3.2612,-0.0641 0,0.14861 -0.5925,1.77986 -1.3088,3.62501 -1.0152,2.61518 -1.2383,3.41692 -1.012,3.63651 0.2712,0.26313 4.8745,2.41264 5.2571,2.45482 0.096,0.0106 0.3274,-0.22341 0.5146,-0.51996 z m -178.73364,-9.91455 c 1.45,-0.4777 2.72456,-0.9487 2.83235,-1.04666 0.10779,-0.0979 -0.12553,-1.29765 -0.5185,-2.66598 -0.39296,-1.36833 -0.85121,-3.1188 -1.01833,-3.88997 -0.16712,-0.77115 -0.44095,-1.4547 -0.60852,-1.51901 -0.3404,-0.13062 -5.78194,0.98739 -6.03436,1.23981 -0.20167,0.20167 1.77844,7.98803 2.14315,8.42748 0.35034,0.42213 0.17702,0.45164 3.20421,-0.54567 z m 182.17764,0.56902 c 0.223,-0.28116 1.7974,-5.86837 2.1209,-7.52621 0.1149,-0.58915 0.049,-0.809 -0.2973,-0.99286 -0.7326,-0.38884 -5.6374,-1.30291 -5.8309,-1.08667 -0.099,0.11017 -0.3599,0.95513 -0.5806,1.8777 -0.2208,0.92257 -0.678,2.63143 -1.0161,3.79749 -0.4048,1.39588 -0.534,2.20092 -0.3781,2.35678 0.2303,0.23029 4.9343,1.82664 5.4743,1.85775 0.1487,0.009 0.3771,-0.11923 0.5078,-0.28398 z M 508.50486,365.46523 c 1.35907,-0.30506 2.57539,-0.65902 2.70292,-0.78655 0.20501,-0.20501 -0.12591,-2.73213 -0.93535,-7.14296 l -0.17589,-0.95852 -2.16548,0.0542 c -1.19101,0.0298 -2.59037,0.1448 -3.10969,0.25557 l -0.94422,0.20137 0.0603,1.54166 c 0.059,1.50749 0.91218,6.80781 1.1606,7.20976 0.18231,0.29497 0.65666,0.24284 3.40682,-0.37451 z m 187.20962,-0.16737 c 0.4581,-1.72726 1.2596,-7.90207 1.0524,-8.10803 -0.2731,-0.27163 -5.4602,-0.84487 -5.9487,-0.65742 -0.1881,0.0722 -0.4133,0.59704 -0.5005,1.16634 -0.087,0.56932 -0.3783,2.36327 -0.6469,3.98657 -0.2686,1.62329 -0.428,3.01185 -0.3542,3.08566 0.2266,0.2266 5.0287,1.24345 5.649,1.19618 0.4076,-0.031 0.6331,-0.2326 0.7489,-0.6693 z m -186.80512,-9.76745 0.95851,-0.15949 -0.009,-1.25397 c -0.0326,-4.4359 -0.14521,-6.92835 -0.32592,-7.21361 -0.16606,-0.26214 -0.81476,-0.0501 -3.21863,1.05219 -1.65587,0.75927 -3.05389,1.5001 -3.10673,1.64627 -0.14745,0.40791 0.2329,5.81756 0.43164,6.13911 0.1748,0.28285 2.97817,0.17088 5.27034,-0.2105 z m 188.10712,0.2109 c 0.081,-0.13026 0.2359,-1.50513 0.3454,-3.05527 0.1526,-2.16155 0.1286,-2.89338 -0.1028,-3.13992 -0.166,-0.17679 -1.5282,-0.89236 -3.0271,-1.59013 -2.0312,-0.94557 -2.794,-1.19935 -2.9954,-0.9965 -0.4192,0.42222 -0.644,8.28584 -0.2414,8.44035 1.136,0.43591 5.7995,0.70037 6.0213,0.34147 z M 509.82953,341.54905 c 0.0851,-2.43061 0.0507,-4.06047 -0.0873,-4.1458 -0.49649,-0.30684 -5.74288,-0.69364 -5.99457,-0.44196 -0.40827,0.40828 -0.71474,5.89103 -0.35094,6.27852 0.16599,0.17681 1.52817,0.89237 3.02705,1.59014 2.03119,0.94557 2.79407,1.19935 2.99545,0.9965 0.16645,-0.16768 0.32401,-1.81003 0.41035,-4.2774 z m 184.57485,3.25257 c 1.6214,-0.74343 2.9955,-1.47573 3.0537,-1.62732 0.1894,-0.49356 -0.2765,-5.9395 -0.5297,-6.19279 -0.2391,-0.23906 -5.5812,0.15374 -6.0525,0.44505 -0.1093,0.0675 -0.14,1.81607 -0.068,3.88562 0.1337,3.85307 0.2355,4.84115 0.4988,4.84115 0.082,0 1.4766,-0.60827 3.0979,-1.35171 z m -184.14015,-9.4316 c 0.64798,-3.15241 1.16925,-7.27545 0.93791,-7.41841 -0.56627,-0.34998 -5.7968,-1.27468 -6.00912,-1.06236 -0.22131,0.22129 -1.43569,7.14078 -1.43569,8.18045 0,0.30526 0.13479,0.60622 0.29954,0.66882 0.52974,0.20133 3.85966,0.53962 4.96447,0.50437 1.02167,-0.0326 1.07836,-0.0724 1.24289,-0.87287 z m 185.67565,0.51018 0.8387,-0.18079 -0.06,-1.54255 c -0.072,-1.84558 -0.9558,-6.96665 -1.2537,-7.26522 -0.2458,-0.2464 -5.3509,0.75697 -5.9021,1.16 -0.3289,0.24048 -0.3281,0.47659 0.01,2.29553 0.2059,1.11512 0.4846,2.82183 0.6193,3.79269 0.1347,0.97086 0.3123,1.87416 0.3946,2.00735 0.1566,0.25335 3.7795,0.0727 5.3557,-0.26701 z M 512.07824,325.54524 c 0.17663,-0.72489 0.64646,-2.47892 1.04407,-3.89786 0.39762,-1.41894 0.65824,-2.68456 0.57917,-2.81249 -0.0791,-0.12794 -1.38831,-0.62459 -2.90944,-1.10367 -2.33155,-0.73431 -2.81422,-0.81944 -3.07496,-0.54229 -0.27309,0.29025 -1.79342,5.54395 -2.18439,7.54844 -0.18711,0.95927 -0.0599,1.03319 2.89741,1.68421 3.25001,0.71544 3.26092,0.71283 3.64814,-0.87634 z m 180.33904,0.86072 c 1.4234,-0.31077 2.6628,-0.63995 2.7544,-0.73148 0.2347,-0.23474 -1.8099,-8.08192 -2.2101,-8.48205 -0.2795,-0.27954 -0.7597,-0.1854 -3.1686,0.62121 -2.3351,0.78186 -2.8342,1.03146 -2.8111,1.40568 0.023,0.38011 1.5785,6.5056 1.8949,7.46415 0.1347,0.40838 0.5473,0.37605 3.5405,-0.27751 z m -178.08135,-9.02238 c 0.10394,-0.18985 0.78133,-1.90877 1.50533,-3.8198 1.01947,-2.69098 1.25093,-3.53562 1.02629,-3.7451 -0.15953,-0.14877 -1.41402,-0.77325 -2.78774,-1.38774 -2.04026,-0.91263 -2.55428,-1.06058 -2.8067,-0.80785 -0.16995,0.17018 -0.96886,2.0205 -1.77536,4.11187 -1.08671,2.81801 -1.39662,3.87269 -1.19703,4.07369 0.30723,0.30942 5.28499,2.05702 5.62373,1.9744 0.12238,-0.0299 0.30755,-0.20963 0.41148,-0.39947 z m 175.30875,-0.44499 c 1.3229,-0.40822 2.5325,-0.89557 2.6881,-1.08302 0.2243,-0.2703 -0.02,-1.12517 -1.1792,-4.13195 -0.8041,-2.08511 -1.5927,-3.92067 -1.7525,-4.079 -0.2266,-0.22442 -0.8615,-0.0338 -2.8806,0.8647 -1.4245,0.63389 -2.6897,1.25223 -2.8116,1.37406 -0.1356,0.13562 0.1803,1.24069 0.8146,2.84958 0.5699,1.44541 1.1752,3.05937 1.3451,3.58655 0.3751,1.16362 0.7089,1.61534 1.0867,1.47035 0.1564,-0.06 1.3666,-0.44305 2.6894,-0.85127 z M 519.66303,305.04223 c 1.03807,-2.04538 1.82216,-3.7841 1.74242,-3.86384 -0.18772,-0.18772 -6.44625,-0.77579 -6.69246,-0.62885 -0.27241,0.16258 -2.80827,5.27867 -2.80827,5.66566 0,0.34739 5.21647,2.78778 5.63128,2.63445 0.1318,-0.0487 1.08896,-1.76206 2.12703,-3.80742 z m 166.37335,2.74164 c 1.5779,-0.71321 2.7146,-1.36709 2.7146,-1.56159 0,-0.18403 -0.6016,-1.53432 -1.337,-3.0006 l -1.3371,-2.66599 -2.5569,0.16299 c -3.0116,0.19198 -4.3541,0.38146 -4.3541,0.61454 0,0.2902 3.8605,7.67761 4.0121,7.67761 0.079,0 1.3654,-0.55214 2.8584,-1.22696 z m -163.04412,-8.77756 c 0.55317,-0.88963 1.57368,-2.45738 2.2678,-3.48387 0.69412,-1.02652 1.26204,-1.95141 1.26204,-2.0553 0,-0.36464 -4.80727,-3.67228 -5.14749,-3.54173 -0.41521,0.15933 -3.47916,4.69347 -3.47916,5.1486 0,0.39758 3.61278,5.54979 3.89157,5.54979 0.10971,0 0.65207,-0.72787 1.20524,-1.61749 z m 157.95152,-0.94169 c 0.9991,-1.40756 1.8165,-2.72935 1.8165,-2.9373 0,-0.48265 -3.031,-5.02991 -3.4632,-5.1958 -0.3414,-0.131 -4.80094,2.92719 -5.02065,3.44299 -0.13756,0.32294 4.29835,7.24929 4.64275,7.24929 0.1145,0 1.0256,-1.15164 2.0246,-2.55918 z m -152.6138,-6.83301 c 0.52132,-0.68465 1.66768,-2.11042 2.54748,-3.16837 0.99646,-1.19824 1.53476,-2.0395 1.42759,-2.23101 -0.28965,-0.51756 -4.18871,-3.8995 -4.49578,-3.8995 -0.52121,0 -5.6005,6.1638 -5.6005,6.79629 0,0.35671 4.45063,3.7474 4.91886,3.7474 0.13998,0 0.68103,-0.56016 1.20235,-1.24481 z m 147.7494,-0.39069 c 1.2363,-0.89953 2.2793,-1.799 2.3179,-1.99882 0.1167,-0.60444 -4.94617,-6.91332 -5.54196,-6.90588 -0.41831,0.005 -4.34199,3.61518 -4.42396,4.07023 -0.0391,0.21673 0.5796,1.17085 1.3748,2.12027 0.79517,0.94942 1.89146,2.31651 2.43616,3.03796 0.5447,0.72146 1.12511,1.31174 1.28979,1.31174 0.1647,0 1.31095,-0.73598 2.54727,-1.6355 z m -139.88035,-8.57678 c 1.53108,-1.53109 2.78378,-2.91697 2.78378,-3.07978 0,-0.48719 -3.64848,-4.4405 -4.09811,-4.4405 -0.61045,0 -6.24812,5.71363 -6.1585,6.24147 0.0798,0.47008 3.98382,4.05923 4.41756,4.0613 0.14933,0 1.5242,-1.25142 3.05527,-2.78249 z m 133.70569,0.94259 c 1.13974,-1.01266 2.07224,-2.02827 2.07224,-2.25693 0,-0.53361 -5.65985,-6.2065 -6.19001,-6.20423 -0.4065,0.002 -3.93598,3.82304 -4.06454,4.40059 -0.0889,0.39926 5.20823,5.83094 5.72612,5.87161 0.21117,0.0165 1.31646,-0.7984 2.45619,-1.81104 z m -6.91266,-7.02643 c 0.98782,-1.10978 1.79603,-2.14746 1.79603,-2.30593 0,-0.53036 -6.18669,-5.6005 -6.83385,-5.6005 -0.33069,0 -3.70984,4.4804 -3.70984,4.91886 0,0.13997 0.56018,0.68104 1.24481,1.20236 0.68465,0.52132 2.11042,1.66768 3.16839,2.54747 1.19824,0.99647 2.03948,1.53477 2.23099,1.4276 0.16908,-0.0946 1.11564,-1.08005 2.10347,-2.18986 z m -119.69593,-0.25452 c 1.64745,-1.32058 3.02644,-2.53837 3.06441,-2.70621 0.093,-0.41122 -3.12467,-4.80744 -3.58355,-4.89604 -0.66771,-0.12893 -6.99087,5.02885 -6.86114,5.59661 0.12444,0.54465 3.64953,4.40123 4.02548,4.40401 0.19769,0.002 1.70735,-1.07779 3.3548,-2.39837 z m 6.41136,-4.74009 c 1.15251,-0.77083 2.71552,-1.79391 3.47334,-2.2735 0.75783,-0.47959 1.37787,-0.97251 1.37787,-1.09535 0,-0.31879 -5.0421,-3.85629 -5.49648,-3.85629 -0.48629,0 -5.03054,3.03255 -5.19794,3.46879 -0.15882,0.4139 3.2113,5.12569 3.68655,5.15419 0.0336,0.002 1.00414,-0.62701 2.15666,-1.39784 z m 105.47691,-1.00182 c 0.98777,-1.3629 1.68518,-2.55087 1.61101,-2.74416 -0.15932,-0.41521 -4.69347,-3.47916 -5.1486,-3.47916 -0.39758,0 -5.54979,3.61279 -5.54979,3.89157 0,0.10972 0.72787,0.65218 1.61749,1.20545 0.88963,0.55327 2.42625,1.56502 3.41472,2.24828 0.98847,0.68329 1.91335,1.25112 2.0553,1.26185 0.14194,0.0108 1.04188,-1.062 1.99987,-2.38383 z m -95.99304,-4.56307 c 2.0649,-1.06381 3.75436,-1.97997 3.75436,-2.03592 0,-0.0559 -0.55273,-1.34222 -1.22829,-2.85839 -0.71547,-1.60572 -1.36745,-2.75666 -1.56158,-2.75666 -0.18331,0 -1.53299,0.60167 -2.99928,1.33704 l -2.66599,1.33704 0.16299,2.55694 c 0.19198,3.0116 0.38146,4.35414 0.61454,4.35414 0.0929,0 1.85836,-0.8704 3.92325,-1.93419 z m 86.44122,1.87429 c 0.13468,-0.54481 0.61893,-6.58259 0.5387,-6.717 -0.16258,-0.2724 -5.27867,-2.80826 -5.66566,-2.80826 -0.34728,0 -2.78772,5.2163 -2.6346,5.63128 0.16208,0.43917 7.68284,4.21235 7.76156,3.89398 z m -77.57457,-5.81174 c 1.8233,-0.69396 3.40937,-1.35602 3.52462,-1.47128 0.24931,-0.24931 -1.31218,-5.32425 -1.78308,-5.79516 -0.26998,-0.26998 -0.93997,-0.0841 -4.12723,1.14501 -2.09271,0.807 -3.93447,1.59805 -4.0928,1.75787 -0.22441,0.22654 -0.0395,0.84518 0.83909,2.8067 1.39649,3.11791 1.44096,3.18665 1.92922,2.98322 0.21731,-0.0905 1.88689,-0.7324 3.71018,-1.42636 z m 68.88103,1.25877 c 0.13544,-0.16473 0.74455,-1.4251 1.35359,-2.80078 0.89784,-2.02806 1.04947,-2.55906 0.80153,-2.8067 -0.16821,-0.16799 -2.01805,-0.96572 -4.11076,-1.77272 -3.14673,-1.21349 -3.85667,-1.41193 -4.104,-1.1472 -0.1645,0.17607 -0.68976,1.50249 -1.16724,2.94761 -0.686,2.07617 -0.80534,2.68357 -0.56877,2.89473 0.16468,0.14698 1.41425,0.67252 2.77685,1.16789 1.36259,0.49534 2.92617,1.1044 3.47461,1.35343 1.19269,0.54152 1.23034,0.54552 1.54419,0.16374 z m -59.73539,-4.17934 c 1.84515,-0.48015 3.45246,-0.95803 3.57182,-1.06196 0.21492,-0.18716 -0.73053,-5.43518 -1.08147,-6.00303 -0.13396,-0.21676 -0.50174,-0.2122 -1.57224,0.0195 -2.61411,0.56576 -6.66809,1.76413 -6.99644,2.06819 -0.27465,0.2543 -0.18284,0.73995 0.57141,3.02249 1.08887,3.29511 1.01109,3.15406 1.63999,2.97423 0.28167,-0.0805 2.02179,-0.53927 3.86693,-1.0194 z m 51.73403,-1.82867 c 0.79272,-2.40782 0.88261,-2.88008 0.59909,-3.14707 -0.18348,-0.17279 -1.78935,-0.70315 -3.5686,-1.17858 -4.59678,-1.22833 -4.7038,-1.24368 -4.98453,-0.71481 -0.38911,0.73307 -1.30282,5.6373 -1.08667,5.83257 0.11017,0.0995 1.20414,0.42434 2.43106,0.72185 1.22693,0.29751 2.84442,0.73842 3.59444,0.97982 0.75001,0.24141 1.52542,0.41646 1.72312,0.38903 0.23256,-0.0323 0.68866,-1.0499 1.29209,-2.88281 z m -42.86775,-0.0686 c 1.31796,-0.2042 2.77371,-0.44966 3.23499,-0.54551 l 0.83871,-0.17424 -0.0542,-2.15752 c -0.0298,-1.18665 -0.14478,-2.58245 -0.25555,-3.10177 l -0.20137,-0.94422 -1.54168,0.0603 c -1.85325,0.0725 -6.96639,0.95648 -7.26699,1.25637 -0.22418,0.22366 0.68649,5.04227 1.10331,5.83785 0.18249,0.34832 0.39733,0.41179 0.98978,0.29244 0.41619,-0.0838 1.83503,-0.31949 3.15299,-0.52369 z m 32.76783,0.32551 c 0.41608,-1.13577 1.1855,-5.74123 0.99156,-5.93515 -0.30428,-0.30429 -8.07828,-1.54634 -8.5487,-1.36583 -0.39332,0.15095 -0.70377,2.16728 -0.7459,4.8448 l -0.0226,1.43777 1.07834,0.19426 c 6.36797,1.14717 7.09858,1.23025 7.24733,0.82415 z m -21.52902,-1.38152 c 1.19923,-0.002 2.32817,-0.0973 2.50874,-0.21166 0.26214,-0.16606 0.0501,-0.81477 -1.05218,-3.21864 -0.75927,-1.65586 -1.50009,-3.05388 -1.64627,-3.10672 -0.51422,-0.18589 -5.94745,0.26484 -6.19665,0.51406 -0.25587,0.25587 0.14811,5.58767 0.46181,6.09528 0.0883,0.1429 0.85321,0.17571 1.94486,0.0834 0.9896,-0.0837 2.78046,-0.15376 3.97969,-0.15577 z m 12.00328,0.007 c 0.31083,-0.50295 0.7019,-5.74919 0.44751,-6.00357 -0.40826,-0.40828 -5.89103,-0.71474 -6.27851,-0.35094 -0.63399,0.59522 -2.86265,5.7381 -2.61945,6.04465 0.15321,0.19313 1.22024,0.31786 3.14402,0.36753 1.60164,0.0414 3.41791,0.0985 4.03617,0.12701 0.61825,0.0285 1.18987,-0.0546 1.27026,-0.18468 z" />
    <path
       id="clock_minute_hand"
       style="display:inline;fill:#000000;fill-opacity:1;stroke-width:0.23962912"
       d="m 602.04012,350.35345 c -1.77286,0.94757 -3.66662,0.65518 -4.83651,-0.74678 -1.47061,-1.31883 -1.14881,-3.22454 -1.14881,-3.22454 l 0.42426,-0.95239 c 0.33008,-0.56175 0.94118,-1.30526 1.35799,-1.65222 0.71185,-0.59142 0.77124,-0.8098 0.97575,-3.54355 0.74581,-9.9703 0.80069,-23.5711 0.14185,-35.15165 -0.42195,-7.41634 -0.45715,-7.67839 -1.18704,-8.84063 -0.60527,-0.96379 -0.62378,-1.22416 -0.31524,-4.43364 0.46414,-4.82758 2.34425,-20.615 2.50884,-21.06656 0.10916,-0.29965 0.17643,-0.20038 0.32826,0.48453 0.4839,2.18287 1.95548,14.66238 2.39871,20.34194 0.24816,3.17979 0.0578,4.42073 -0.78618,5.12499 -0.5618,0.4688 -1.29148,14.34679 -1.29369,24.60475 -10e-4,6.05549 0.22317,13.86285 0.53367,18.56199 l 0.2099,3.17667 0.95467,0.89128 c 1.14702,1.07092 1.63521,2.17585 1.5217,3.44406 -0.11021,1.23116 -0.86368,2.48765 -1.78809,2.98172 z m -0.66733,-2.99337 c 0.20019,-0.94439 -0.31187,-1.65499 -1.25381,-1.73999 -1.44973,-0.13081 -2.08512,1.39884 -1.01864,2.45223 0.40316,0.39823 0.75892,0.51743 1.22187,0.40944 0.8514,-0.19862 0.85595,-0.20346 1.05058,-1.12168 z" />
    <path
       id="clock_hour_hand"
       style="display:inline;fill:#000000;fill-opacity:1;stroke-width:0.23962912"
       d="m 596.75841,349.02666 c -0.93591,-1.77905 -0.63108,-3.67085 0.77853,-4.83149 0.75177,-0.61899 0.89898,-0.9023 1.05692,-2.03427 0.58975,-4.22646 0.64025,-12.72381 0.11052,-18.60024 -0.32378,-3.59174 -0.35988,-3.73601 -1.03515,-4.13619 -0.38482,-0.22808 -1.05239,-0.84302 -1.48345,-1.36657 -0.94644,-1.14944 -0.9608,-0.84589 0.43092,-9.10672 0.54969,-3.2627 1.48094,-8.99471 2.06949,-12.73784 1.1123,-7.07439 1.21165,-7.57619 1.44407,-7.29392 0.19762,0.24 2.13087,11.74536 2.79727,16.64744 0.96919,7.12923 1.29734,10.9528 1.00832,11.74858 -0.20129,0.55412 -0.62728,1.03435 -1.54441,1.74097 l -1.26648,0.97581 -0.43415,4.9865 c -0.46141,5.29959 -0.52364,10.12372 -0.19256,14.92815 l 0.20289,2.94434 1.0174,0.60685 c 2.47975,1.5408 2.94236,4.2653 1.46378,5.83723 -1.07843,1.13996 -2.18654,1.62088 -3.45398,1.49905 -1.23041,-0.1183 -2.48192,-0.88 -2.9699,-1.80763 z m 2.9977,-0.64765 c 0.94322,0.20556 1.657,-0.30099 1.74817,-1.24235 0.14034,-1.44884 -1.3851,-2.09427 -2.44548,-1.03472 -0.40087,0.40053 -0.42435,0.79126 -0.30816,1.25223 0.13407,0.53197 0.0885,0.82418 1.00545,1.02484 z" />
    <text
       id="clock-text"
       x="600"
       y="370"
       width="50"
       height="10"
       fill="black"
       text-anchor="middle"
       font-family="monospace" />
    <rect
       style="fill:#000000;stroke:none"
       id="clock-overlay"
       width="1200"
       height="700"
       opacity=".3"
       x="0"
       y="0" />
  </g>
</svg>
